<svg width="28" height="29" viewBox="0 0 28 29" fill="none" xmlns="http://www.w3.org/2000/svg">
<path opacity="0.2" d="M13.8492 28.15C21.3879 28.15 27.4992 22.0387 27.4992 14.5C27.4992 6.96129 21.3879 0.849976 13.8492 0.849976C6.31053 0.849976 0.199219 6.96129 0.199219 14.5C0.199219 22.0387 6.31053 28.15 13.8492 28.15Z" fill="#1276A7"/>
<path d="M15.4998 8.53894C14.6454 9.0253 14.1396 9.90358 14.1396 10.8297C14.1396 11.3161 14.3411 11.8062 14.5934 12.2435C14.795 12.6341 14.8938 13.3159 14.1904 13.6573C13.6884 13.9484 13.0317 13.7543 12.7314 13.2667C12.4309 12.8761 12.0786 12.4855 11.6247 12.1944C10.7704 11.708 9.76257 11.708 8.90818 12.1944C8.05379 12.6808 7.54922 13.5612 7.54922 14.4877C7.54922 15.4141 8.05118 16.292 8.90798 16.7797C9.76231 17.2661 10.7701 17.2661 11.6245 16.7797C12.0784 16.5353 12.4307 16.1472 12.6804 15.7074C12.882 15.3659 13.436 14.9262 14.1395 15.3168C14.6414 15.6079 14.7922 16.2442 14.5425 16.7306C14.2903 17.1703 14.1395 17.658 14.1395 18.1444C14.1395 19.0718 14.6414 19.9488 15.4996 20.4352C16.354 20.9215 17.3618 20.9215 18.2162 20.4352C19.0706 19.9488 19.5765 19.0705 19.5765 18.1444C19.5765 17.2182 19.0732 16.34 18.2163 15.8523C17.7625 15.6079 17.2592 15.5108 16.7065 15.5108C16.2527 15.5108 15.6506 15.2198 15.6506 14.4877C15.6506 13.9018 16.1045 13.4645 16.7065 13.4645C17.2085 13.4645 17.7625 13.3675 18.2163 13.123C19.0706 12.6367 19.5765 11.7584 19.5765 10.8323C19.5765 9.90617 19.0732 9.02788 18.2163 8.54146C17.8132 8.29702 17.3112 8.2 16.8576 8.2C16.4063 8.19748 15.9004 8.29702 15.5 8.53894" fill="#1276A7"/>
</svg>
