<svg width="28" height="28" viewBox="0 0 28 28" fill="none" xmlns="http://www.w3.org/2000/svg">
<path opacity="0.2" d="M27.0904 17.0022C25.2673 24.3148 17.8605 28.7647 10.5471 26.9415C3.23705 25.1184 -1.21328 17.7116 0.610278 10.3994C2.43255 3.08603 9.83896 -1.36473 17.1502 0.458401C24.4632 2.28153 28.9131 9.68921 27.09 17.0022H27.0904Z" fill="#F7931A"/>
<path fill-rule="evenodd" clip-rule="evenodd" d="M17.5134 11.0128C17.3723 9.77504 16.2947 9.37804 14.9412 9.28324L14.9112 7.5633L13.864 7.58176L13.8933 9.25636C13.6183 9.26113 13.3371 9.27147 13.0577 9.28193L13.0284 7.59624L11.9821 7.61447L12.0117 9.33392C11.7851 9.34251 11.5626 9.3506 11.3456 9.35453L11.3454 9.3492L9.9014 9.37391L9.92119 10.492C9.92119 10.492 10.694 10.4638 10.6814 10.4783C11.1055 10.471 11.2481 10.7147 11.2917 10.9265L11.3259 12.8859C11.3552 12.8855 11.3934 12.8861 11.4367 12.8912L11.3264 12.8932L11.3738 15.6382C11.3575 15.772 11.2828 15.9861 10.9865 15.9918C11.0001 16.0034 10.2255 16.0049 10.2255 16.0049L10.0394 17.2591L11.4021 17.2352C11.5559 17.2327 11.7083 17.2317 11.8591 17.2307C11.9567 17.23 12.0536 17.2294 12.1498 17.2284L12.1807 18.9681L13.2265 18.9501L13.1967 17.2289C13.4836 17.2299 13.7615 17.2273 14.0328 17.2223L14.0623 18.9355L15.1092 18.9171L15.0792 17.1807C16.8375 17.049 18.0619 16.584 18.1856 14.9289C18.2858 13.5959 17.6497 13.0129 16.6463 12.7901C17.2478 12.4699 17.6177 11.9187 17.5132 11.0129L17.5134 11.0128ZM16.1134 14.758C16.1345 15.9512 14.2593 15.9576 13.4021 15.9605C13.3254 15.9608 13.2568 15.961 13.1984 15.9621L13.1585 13.6573C13.2298 13.6561 13.3164 13.6525 13.4145 13.6485L13.4145 13.6485C14.2925 13.6124 16.0917 13.5385 16.1137 14.7579L16.1134 14.758ZM13.3123 12.6014C14.028 12.6006 15.5881 12.5989 15.5695 11.5148C15.5502 10.4059 14.0505 10.4719 13.3181 10.5042C13.2357 10.5078 13.1631 10.511 13.1033 10.5121L13.1398 12.6024C13.1891 12.6015 13.2472 12.6014 13.3123 12.6014Z" fill="#F7931A"/>
</svg>
