<svg width="28" height="28" viewBox="0 0 28 28" fill="none" xmlns="http://www.w3.org/2000/svg">
<path opacity="0.2" d="M27.4259 14.1003C27.4259 21.5993 21.3469 27.6784 13.848 27.6784C6.349 27.6784 0.269928 21.5993 0.269928 14.1003C0.269928 6.60135 6.349 0.522278 13.848 0.522278C21.3468 0.522278 27.4259 6.60135 27.4259 14.1003Z" fill="#505050"/>
<g opacity="0.8">
<path d="M13.8046 7.80005L13.7207 8.08511V16.3568L13.8046 16.4405L17.6442 14.1709L13.8046 7.80005Z" fill="white"/>
<path d="M13.8046 7.80005L9.965 14.1709L13.8046 16.4405V12.4257V7.80005Z" fill="white"/>
<path d="M13.8046 17.6898L13.7573 17.7474V20.6939L13.8046 20.832L17.6465 15.4213L13.8046 17.6898Z" fill="white"/>
<path d="M13.8046 20.832V17.6898L9.965 15.4213L13.8046 20.832Z" fill="white"/>
<path d="M13.8046 16.4405L17.6442 14.1709L13.8046 12.4257V16.4405Z" fill="white"/>
<path d="M9.965 14.1709L13.8046 16.4405V12.4257L9.965 14.1709Z" fill="white"/>
</g>
</svg>
