<svg width="107" height="28" viewBox="0 0 107 28" fill="none" xmlns="http://www.w3.org/2000/svg">
<path d="M14.2027 0.213989C6.53297 0.213989 0.312744 6.43347 0.312744 14.1036C0.312744 15.637 0.561162 17.1117 1.02036 18.4911H5.1742V6.80459L14.2027 15.8331L23.2311 6.80459V18.4911H27.3854C27.8446 17.1117 28.093 15.637 28.093 14.1036C28.093 6.43347 21.8727 0.213989 14.2027 0.213989Z" fill="#8A87A9"/>
<path d="M8.18565 13.9683V21.3218H2.33276C4.77103 25.3221 9.17481 27.9937 14.2015 27.9937C19.2282 27.9937 23.6324 25.3221 26.0703 21.3218H20.2178V13.9683L14.2015 19.9845L8.18565 13.9683Z" fill="#8A87A9"/>
<path d="M102.808 18.0582C102.074 18.8143 101.183 19.1911 100.136 19.1911C99.2107 19.1911 98.3928 18.9005 97.6769 18.3164C96.7566 17.5715 96.297 16.5571 96.297 15.2736C96.297 14.1245 96.6629 13.1749 97.3946 12.4296C98.1237 11.6818 99.0248 11.3103 100.099 11.3103C101.159 11.3103 102.06 11.6927 102.8 12.4564C103.543 13.2204 103.914 14.1546 103.914 15.2601C103.914 16.3686 103.546 17.2994 102.808 18.0582ZM104.35 10.9305C103.171 9.74448 101.761 9.14978 100.12 9.14978C99.0383 9.14978 98.0269 9.42191 97.0909 9.96504C96.1514 10.5085 95.414 11.2455 94.8788 12.1767C94.3432 13.1075 94.0745 14.1275 94.0745 15.2356C94.0745 16.8906 94.65 18.319 95.8021 19.5223C96.9531 20.7275 98.3984 21.3275 100.136 21.3275C101.796 21.3275 103.209 20.7437 104.374 19.5705C105.539 18.3999 106.12 16.9663 106.12 15.2736C106.12 13.5675 105.531 12.1202 104.35 10.9305Z" fill="#8A87A9"/>
<path d="M56.1752 18.0582C55.4408 18.8143 54.5503 19.1911 53.5032 19.1911C52.578 19.1911 51.7601 18.9005 51.0442 18.3164C50.1239 17.5715 49.6644 16.5571 49.6644 15.2736C49.6644 14.1245 50.0302 13.1749 50.7619 12.4296C51.491 11.6818 52.3921 11.3103 53.4659 11.3103C54.5262 11.3103 55.4277 11.6927 56.1673 12.4564C56.9099 13.2204 57.281 14.1546 57.281 15.2601C57.281 16.3686 56.9129 17.2994 56.1752 18.0582ZM57.7172 10.9305C56.5384 9.74448 55.1288 9.14978 53.4874 9.14978C52.4056 9.14978 51.3943 9.42191 50.4582 9.96504C49.5187 10.5085 48.7813 11.2455 48.2461 12.1767C47.7105 13.1075 47.4418 14.1275 47.4418 15.2356C47.4418 16.8906 48.0173 18.319 49.1694 19.5223C50.3204 20.7275 51.7657 21.3275 53.5032 21.3275C55.1634 21.3275 56.5764 20.7437 57.7413 19.5705C58.9062 18.3999 59.4874 16.9663 59.4874 15.2736C59.4874 13.5675 58.898 12.1202 57.7172 10.9305Z" fill="#8A87A9"/>
<path d="M89.8597 13.6202C89.58 13.8151 89.4479 13.9111 88.7079 13.9111H85.7961V11.4202H88.6176C89.1833 11.4202 89.2834 11.4627 89.5153 11.55C89.7464 11.6347 89.93 11.7762 90.0686 11.9708C90.2071 12.1658 90.2748 12.3973 90.2748 12.6626C90.2748 13.109 90.1363 13.4282 89.8597 13.6202ZM90.2097 15.9135C90.9809 15.6365 91.5598 15.23 91.9437 14.6936C92.328 14.1543 92.5174 13.4873 92.5174 12.6856C92.5174 11.9257 92.3453 11.2647 91.9976 10.7084C91.6501 10.1521 91.1898 9.75389 90.6196 9.51375C90.049 9.27361 89.0914 9.15241 87.7443 9.15241H83.4802V21.3249H85.7961V16.1706H87.8174L90.5575 21.3249H93.0906L90.2097 15.9135ZM73.0985 9.14978H80.9907V11.4175H75.4005V13.9089H80.9907V16.1371H75.4005V19.0458H80.9907V21.3226H73.0985V9.14978ZM60.8703 9.14978H63.0876L68.3096 17.1594V9.14978H70.6256V21.3222H68.4L63.1862 13.3382V21.3222H60.8703V9.14978Z" fill="#8A87A9"/>
<path d="M33.9203 9.14917H36.188L39.0008 17.6394L41.8564 9.14917H44.0903L46.1413 21.322H43.907L42.5994 13.6342L40.0095 21.322H37.9672L35.4115 13.6342L34.0784 21.322H31.8189L33.9203 9.14917Z" fill="#8A87A9"/>
</svg>
