<svg width="106" height="23" viewBox="0 0 106 23" fill="none" xmlns="http://www.w3.org/2000/svg">
<path d="M4.80576 11.4187L2.40184 13.8205L0 11.4187L2.40184 9.01682L4.80576 11.4187ZM10.6338 5.58651L14.7497 9.70455L17.1516 7.30271L10.6338 0.784912L4.11596 7.30271L6.5178 9.70455L10.6338 5.58651ZM18.8678 9.01682L16.4659 11.4187L18.8678 13.8205L21.2675 11.4187L18.8678 9.01682ZM10.6338 17.2508L6.5178 13.1349L4.11596 15.5346L10.6338 22.0524L17.1516 15.5346L14.7497 13.1349L10.6338 17.2508ZM10.6338 13.8205L13.0356 11.4187L10.6338 9.01682L8.23192 11.4187L10.6338 13.8205ZM35.9819 14.0511V14.0179C35.9819 12.4513 35.1508 11.668 33.7982 11.1527C34.6293 10.6852 35.3316 9.9518 35.3316 8.6366V8.60336C35.3316 6.77081 33.8647 5.58651 31.4816 5.58651H26.0712V17.2508H31.6187C34.2512 17.2508 35.9861 16.1849 35.9861 14.0511H35.9819ZM32.7822 9.06461C32.7822 9.93102 32.0654 10.2988 30.9331 10.2988H28.5707V7.83668H31.1034C32.1859 7.83668 32.7864 8.26884 32.7864 9.03552L32.7822 9.06461ZM33.4326 13.7312C33.4326 14.5976 32.749 14.9965 31.6146 14.9965H28.5707V12.4347H31.5356C32.8529 12.4347 33.4367 12.9188 33.4367 13.7021L33.4326 13.7312ZM41.3736 17.2508V5.58651H38.7993V17.2508H41.3736ZM55.1676 17.2508V5.58651H52.6265V12.7692L47.1621 5.58651H44.7956V17.2508H47.3284V9.83544L52.9756 17.2508H55.1676ZM69.3812 17.2508L64.374 5.5034H62.0074L57.0105 17.2508H59.6264L60.6964 14.635H65.6289L66.6948 17.2508H69.3812ZM64.7168 12.3682H61.6085L63.1585 8.58674L64.7168 12.3682ZM81.6128 17.2508V5.58651H79.0717V12.7692L73.6053 5.58651H71.2408V17.2508H73.7715V9.83544L79.4208 17.2508H81.6128ZM94.8582 15.3684L93.2272 13.7187C92.311 14.5498 91.4944 15.0838 90.1605 15.0838C88.1617 15.0838 86.778 13.4216 86.778 11.4187V11.3854C86.778 9.38666 88.195 7.75357 90.1605 7.75357C91.3261 7.75357 92.2382 8.25222 93.1441 9.06877L94.771 7.18636C93.6885 6.12049 92.3733 5.38705 90.173 5.38705C86.591 5.38705 84.0915 8.10263 84.0915 11.4124V11.4457C84.0915 14.795 86.6409 17.444 90.0732 17.444C92.3193 17.4503 93.6511 16.6504 94.8499 15.3684H94.8582ZM105.808 17.2508V14.9653H99.4666V12.5115H104.966V10.2261H99.4666V7.86992H105.716V5.58444H96.9173V17.2487L105.808 17.2508Z" fill="#8A87A9"/>
</svg>
