<svg width="107" height="14" viewBox="0 0 107 14" fill="none" xmlns="http://www.w3.org/2000/svg">
<path d="M94.6927 11.4824C95.2615 12.0848 98.3859 14.972 103.29 11.6212C106.836 8.85956 106.747 2.87228 106.407 1.06419C106.288 1.32735 102.169 10.3473 94.6927 11.4824ZM106.406 1.06266C106.363 1.04473 101.801 0.422724 97.2904 3.3276C94.4897 5.13147 94.1196 7.77161 94.2473 9.53083C100.804 8.79706 106.258 1.26956 106.406 1.06266Z" fill="#8A87A9"/>
<path d="M106.406 1.06266C106.363 1.04473 101.801 0.422723 97.2904 3.3276C94.4897 5.13148 94.1196 7.77162 94.2473 9.53085C100.804 8.79708 106.257 1.26956 106.406 1.06266Z" fill="#8A87A9"/>
<path d="M8.0682 11.1304H2.96091V8.41033H8.0682C9.34502 8.41033 9.99728 9.02094 9.99728 9.81205C9.99728 10.5754 9.35887 11.1305 8.06815 11.1305L8.0682 11.1304ZM7.90164 6.95306H2.96091V4.66312H7.90164C9.24782 4.66312 9.77518 5.13498 9.77518 5.78729C9.77518 6.384 9.16457 6.95306 7.90164 6.95306ZM9.20622 7.64697C11.3574 7.57757 12.1345 6.50895 12.1345 5.34318C12.1345 4.06636 11.1214 3.0116 8.65106 3.0116H0.754272V12.7542H8.88701C10.9132 12.7542 12.426 11.9076 12.426 10.0896C12.426 8.79884 11.5794 7.70247 9.20622 7.64697ZM15.0322 3.0116V12.7542H17.2389V3.0116H15.0322ZM26.1876 4.85743H31.0451V3.0116H19.1235V4.85743H23.9809V12.7542H26.1876L26.1876 4.85743ZM32.9297 3.0116V12.7542H35.1363V8.95154H40.3129V7.35552H35.1363V4.69087H43.5466V3.01164L32.9297 3.0116ZM45.3341 3.0116V12.7542H47.5407V3.0116H45.3341ZM52.7145 5.38479L60.0284 12.7542H62.5265V3.0116H60.3476V10.0341L53.3251 3.0116H50.5218V12.7542H52.7145V5.38479ZM65.5075 3.0116V12.7542H76.3049V11.1166H67.7142V8.43803H72.863V6.92531H67.7142V4.69087H76.3049V3.01164L65.5075 3.0116ZM91.0825 3.0116H88.1681L84.4487 6.43955L80.757 3.0116H77.8009L82.9914 7.81352L77.6066 12.7542H80.5211L84.4209 9.1597L88.3069 12.7542H91.2768L85.8781 7.79962L91.0825 3.0116Z" fill="#8A87A9"/>
</svg>
