<svg width="25" height="25" viewBox="0 0 25 25" fill="none" xmlns="http://www.w3.org/2000/svg">
<path d="M24.1808 15.3397C22.5678 21.8085 16.0153 25.7452 9.54508 24.1321C3.07747 22.5194 -0.859774 15.9672 0.75392 9.49887C2.3661 3.02938 8.91862 -0.907784 15.387 0.704967C21.8569 2.31772 25.7937 8.8706 24.1808 15.3397Z" fill="#252333"/>
<path d="M18.212 10.8755C18.4524 9.22055 17.2292 8.33088 15.5567 7.73739L16.0993 5.49555L14.7746 5.15546L14.2465 7.33822C13.8982 7.24883 13.5406 7.16449 13.1852 7.08093L13.7171 4.88379L12.3933 4.5437L11.8504 6.78476C11.5621 6.71713 11.2792 6.65028 11.0045 6.57993L11.006 6.57294L9.17923 6.10304L8.82686 7.56054C8.82686 7.56054 9.80966 7.79258 9.78891 7.80696C10.3254 7.94494 10.4224 8.31067 10.4061 8.60062L9.78816 11.1546C9.82513 11.1643 9.87305 11.1783 9.92587 11.2C9.88173 11.1888 9.83457 11.1763 9.7859 11.1643L8.91967 14.742C8.85402 14.9099 8.68764 15.1617 8.31263 15.0661C8.32583 15.0859 7.34981 14.8185 7.34981 14.8185L6.69221 16.3806L8.416 16.8233C8.73669 16.9061 9.05096 16.9927 9.36033 17.0744L8.81214 19.3419L10.1353 19.6819L10.6782 17.4385C11.0396 17.5396 11.3905 17.6329 11.7338 17.7207L11.1928 19.9536L12.5174 20.2937L13.0656 18.0305C15.3243 18.4708 17.0228 18.2932 17.7378 16.1886C18.3139 14.494 17.7091 13.5165 16.5207 12.8791C17.3862 12.6735 18.0381 12.087 18.212 10.8755ZM15.1855 15.2476C14.7762 16.9422 12.0066 16.0261 11.1086 15.7964L11.836 12.7924C12.7339 13.0233 15.6133 13.4803 15.1855 15.2476ZM15.5952 10.851C15.2217 12.3925 12.9166 11.6093 12.1688 11.4173L12.8283 8.69273C13.576 8.88474 15.9842 9.24309 15.5952 10.851Z" fill="#8A87A9"/>
</svg>
