<svg width="246" height="37" viewBox="0 0 246 37" fill="none" xmlns="http://www.w3.org/2000/svg">
<rect x="0.298462" y="0.950195" width="35.7" height="35.7" rx="8.4" fill="white" fill-opacity="0.15"/>
<path d="M22.5293 10.1413L20.3422 10.1377C17.885 10.1377 16.2971 11.8112 16.2971 14.4014V16.3673H14.0981C13.9081 16.3673 13.7542 16.5255 13.7542 16.7207V19.569C13.7542 19.7642 13.9083 19.9223 14.0981 19.9223H16.2971V27.1094C16.2971 27.3046 16.451 27.4627 16.641 27.4627H19.5101C19.7002 27.4627 19.854 27.3044 19.854 27.1094V19.9223H22.4252C22.6152 19.9223 22.7691 19.7642 22.7691 19.569L22.7702 16.7207C22.7702 16.627 22.7338 16.5372 22.6695 16.4709C22.6051 16.4046 22.5173 16.3673 22.4261 16.3673H19.854V14.7008C19.854 13.8998 20.0398 13.4932 21.0556 13.4932L22.5289 13.4926C22.7188 13.4926 22.8726 13.3344 22.8726 13.1394V10.4946C22.8726 10.2997 22.7189 10.1417 22.5293 10.1413Z" fill="white"/>
<rect x="52.7985" y="0.950195" width="35.7" height="35.7" rx="8.4" fill="white" fill-opacity="0.15"/>
<path d="M78.9172 13.8961C78.3085 14.1544 77.6554 14.3295 76.9692 14.4077C77.6699 14.0059 78.2062 13.3687 78.4604 12.6117C77.8032 12.9838 77.0777 13.2539 76.3047 13.4004C75.6857 12.7681 74.8053 12.3743 73.8287 12.3743C71.9551 12.3743 70.436 13.8288 70.436 15.6218C70.436 15.8761 70.466 16.1245 70.5239 16.362C67.7048 16.2264 65.205 14.9331 63.5319 12.9679C63.2395 13.4469 63.0731 14.0049 63.0731 14.6006C63.0731 15.7277 63.6725 16.7221 64.5819 17.3039C64.0259 17.2861 63.503 17.1397 63.0452 16.8963V16.9368C63.0452 18.5101 64.215 19.8232 65.7661 20.122C65.4819 20.1953 65.1823 20.2358 64.8722 20.2358C64.6532 20.2358 64.4413 20.215 64.2336 20.1755C64.6656 21.4668 65.9181 22.4058 67.402 22.4315C66.2415 23.3023 64.7782 23.8198 63.1888 23.8198C62.915 23.8198 62.6453 23.804 62.3797 23.7753C63.8812 24.6985 65.6639 25.2368 67.5798 25.2368C73.8205 25.2368 77.2317 20.2873 77.2317 15.9949L77.2204 15.5743C77.8869 15.1191 78.4635 14.5472 78.9172 13.8961Z" fill="white"/>
<rect x="210.298" y="0.950195" width="35.7" height="35.7" rx="8.4" fill="white" fill-opacity="0.15"/>
<path fill-rule="evenodd" clip-rule="evenodd" d="M235.543 12.5898C236.353 12.8078 236.991 13.446 237.209 14.2557C237.614 15.7346 237.598 18.8172 237.598 18.8172C237.598 18.8172 237.598 21.884 237.209 23.363C236.991 24.1726 236.353 24.8109 235.543 25.0288C234.064 25.4181 228.148 25.4181 228.148 25.4181C228.148 25.4181 222.248 25.4181 220.754 25.0134C219.944 24.7953 219.306 24.157 219.088 23.3475C218.698 21.884 218.698 18.8016 218.698 18.8016C218.698 18.8016 218.698 15.7346 219.088 14.2557C219.306 13.4462 219.959 12.7923 220.753 12.5744C222.232 12.1851 228.148 12.1851 228.148 12.1851C228.148 12.1851 234.064 12.1851 235.543 12.5898ZM231.184 18.8017L226.265 21.6351V15.9682L231.184 18.8017Z" fill="white"/>
<rect x="105.298" y="0.950195" width="35.7" height="35.7" rx="8.4" fill="white" fill-opacity="0.15"/>
<path fill-rule="evenodd" clip-rule="evenodd" d="M115.273 18.8C115.273 16.8465 115.273 15.8697 115.507 15.073C116.061 13.1873 117.536 11.7127 119.421 11.159C120.218 10.925 121.195 10.925 123.148 10.925C125.102 10.925 126.079 10.925 126.875 11.159C128.761 11.7127 130.236 13.1873 130.79 15.073C131.023 15.8697 131.023 16.8465 131.023 18.8C131.023 20.7536 131.023 21.7304 130.79 22.5271C130.236 24.4128 128.761 25.8874 126.875 26.4411C126.079 26.675 125.102 26.675 123.148 26.675C121.195 26.675 120.218 26.675 119.421 26.4411C117.536 25.8874 116.061 24.4128 115.507 22.5271C115.273 21.7304 115.273 20.7536 115.273 18.8ZM123.148 14.6311C120.846 14.6311 118.979 16.4978 118.979 18.8002C118.979 21.1026 120.846 22.9693 123.148 22.9693C125.451 22.9693 127.318 21.1026 127.318 18.8002C127.318 16.4978 125.451 14.6311 123.148 14.6311ZM123.148 21.4059C121.712 21.4059 120.543 20.2365 120.543 18.8002C120.543 17.3629 121.712 16.1945 123.148 16.1945C124.585 16.1945 125.754 17.3629 125.754 18.8002C125.754 20.2365 124.585 21.4059 123.148 21.4059ZM128.186 14.3181C128.186 14.625 127.937 14.8737 127.63 14.8737C127.323 14.8737 127.075 14.625 127.075 14.3181C127.075 14.0113 127.323 13.7626 127.63 13.7626C127.937 13.7626 128.186 14.0113 128.186 14.3181Z" fill="white"/>
<rect x="157.798" y="0.950195" width="35.7" height="35.7" rx="8.4" fill="white" fill-opacity="0.15"/>
<path d="M183.52 26.6751V26.6744H183.523V20.8981C183.523 18.0723 182.915 15.8955 179.612 15.8955C178.023 15.8955 176.958 16.767 176.523 17.5932H176.477V16.1593H173.344V26.6744H176.606V21.4677C176.606 20.0968 176.866 18.7712 178.564 18.7712C180.236 18.7712 180.261 20.3357 180.261 21.5557V26.6751H183.52Z" fill="white"/>
<path d="M168.033 16.1599H171.299V26.675H168.033V16.1599Z" fill="white"/>
<path d="M169.665 10.925C168.621 10.925 167.773 11.7723 167.773 12.8164C167.773 13.8605 168.621 14.7254 169.665 14.7254C170.709 14.7254 171.556 13.8605 171.556 12.8164C171.555 11.7723 170.708 10.925 169.665 10.925V10.925Z" fill="white"/>
</svg>
