<svg width="30" height="30" viewBox="0 0 30 30" fill="none" xmlns="http://www.w3.org/2000/svg">
<path d="M15.2736 29.5074C23.2285 29.5074 29.6772 23.0586 29.6772 15.1037C29.6772 7.14881 23.2285 0.700073 15.2736 0.700073C7.31866 0.700073 0.869934 7.14881 0.869934 15.1037C0.869934 23.0586 7.31866 29.5074 15.2736 29.5074Z" fill="#252333"/>
<path d="M16.8094 16.4332V16.4309C16.7098 16.4379 16.1957 16.468 15.0518 16.468C14.1371 16.468 13.4956 16.4425 13.2687 16.4309V16.4332C9.75116 16.2781 7.12747 15.6667 7.12747 14.9326C7.12747 14.2009 9.75347 13.5872 13.2687 13.4321V15.8242C13.498 15.8404 14.1579 15.8798 15.068 15.8798C16.161 15.8798 16.7075 15.8335 16.8094 15.8242V13.4344C20.32 13.5918 22.9368 14.2032 22.9368 14.935C22.9368 15.6667 20.3177 16.2781 16.8094 16.4355V16.4332ZM16.8094 13.1866V11.0469H21.7071V7.78406H8.37331V11.0469H13.271V13.1866C9.29033 13.3695 6.29845 14.1569 6.29845 15.1017C6.29845 16.0465 9.29265 16.8338 13.271 17.0191V23.8782H16.8117V17.0191C20.7855 16.8362 23.7727 16.0488 23.7727 15.104C23.7727 14.1615 20.7855 13.3719 16.8117 13.1889" fill="#8A87A9"/>
</svg>
