<svg width="1651" height="805" viewBox="0 0 1651 805" fill="none" xmlns="http://www.w3.org/2000/svg">
<path d="M995.004 553.194L982.362 567.166L969.721 574.484V591.783L963.733 604.424V617.731L969.721 625.05H982.362L989.681 617.731V604.424L998.33 583.134L1002.32 567.166V553.194L998.33 546.541L995.004 553.194Z" stroke="#3D4151" stroke-width="2.1" stroke-dasharray="24.15 24.15"/>
<path d="M662.339 302.364L670.988 299.038L680.968 284.4V274.42L690.948 268.433L704.255 259.118L718.227 265.106L738.852 252.465L752.824 250.469L768.792 252.465L782.764 246.477L788.752 259.118L782.764 265.106L798.067 274.42H806.716L816.696 284.4L830.002 289.058L836.656 284.4V274.42H851.293L868.592 284.4H885.89H901.858L910.507 302.364L914.499 312.344L921.818 326.316L927.141 339.623V350.268L936.455 358.252L941.778 374.22L952.423 381.539L961.738 392.849L965.73 403.495L973.049 408.152L985.025 410.813L1007.65 403.495V420.128L997.666 436.761L988.351 451.398L975.71 463.374L961.738 479.342L949.762 492.649L941.778 507.286L945.77 525.25L952.423 533.9V548.537V561.843L945.77 573.154L933.129 576.481L927.141 585.13L918.491 595.11L921.818 611.743L918.491 619.062L909.177 625.715L904.52 631.703V638.356L902.524 646.34L886.556 665.635L871.918 675.615L859.277 681.603L852.624 675.615L843.974 681.603H832.664L828.006 675.615V665.635L822.684 653.659L812.039 641.018V631.703L808.047 611.743L802.059 595.11L793.409 581.803V569.827L798.067 558.517L802.059 545.21V533.9V525.25L798.067 515.27L793.409 500.633L788.752 495.31L782.764 485.996V475.35V459.382V451.398L773.449 444.08H760.808L755.485 436.761L746.836 432.104L735.525 436.761L721.554 440.753H704.255L686.956 444.08L675.646 440.753L659.012 427.447L654.355 420.128L648.367 410.813L643.045 403.495L639.718 398.837V390.188L635.061 383.535L639.718 375.551V361.579V354.926V346.942V337.627L648.367 326.316L654.355 312.344L662.339 302.364Z" stroke="#3D4151" stroke-width="2.1" stroke-dasharray="24.15 24.15"/>
<path d="M1465.39 731.502L1470.05 720.192H1480.7L1486.02 724.184L1480.7 731.502L1470.05 735.494L1465.39 731.502Z" stroke="#3D4151" stroke-width="2.1" stroke-dasharray="24.15 24.15"/>
<path d="M1400.86 667.631L1384.22 674.95H1362.27L1352.95 680.272L1342.97 685.595L1338.31 680.272V674.95L1342.97 660.312V640.352V619.727L1349.63 607.751L1373.58 593.779H1384.22L1400.86 577.146L1405.51 571.158L1414.16 561.843L1428.13 557.186L1437.45 561.843L1442.11 555.19L1450.76 549.202L1466.72 544.545C1481.09 542.416 1479.81 548.537 1477.37 551.863L1470.05 561.843L1477.37 567.166L1494.67 577.146L1506.64 561.843V551.863L1513.96 541.218L1517.29 551.863L1525.94 561.843V579.807L1531.93 587.791L1541.91 607.751L1551.89 619.727V631.703L1546.56 653.659L1536.58 667.631L1525.94 674.95L1517.29 691.583L1506.64 700.232H1496.66L1492.01 704.889L1485.35 708.881L1477.37 704.889H1466.72L1458.74 700.232V691.583L1455.41 685.595L1448.76 674.95L1442.11 680.272L1434.12 667.631L1425.47 664.304H1418.15L1400.86 667.631Z" stroke="#3D4151" stroke-width="2.1" stroke-dasharray="24.15 24.15"/>
<path d="M1575.17 753.459H1560.54C1560.54 748.668 1565.86 742.592 1568.52 740.152L1585.15 731.503L1599.79 726.846L1612.43 718.196V726.846L1604.45 731.503L1599.79 740.152H1593.14L1585.15 748.136L1575.17 753.459Z" stroke="#3D4151" stroke-width="2.1" stroke-dasharray="24.15 24.15"/>
<path d="M1631.06 722.853H1622.41L1625.74 713.539V706.22L1635.05 702.228L1639.04 688.256L1643.04 698.236L1649.02 706.22L1639.04 713.539L1631.06 722.853Z" stroke="#3D4151" stroke-width="2.1" stroke-dasharray="24.15 24.15"/>
<path d="M434.132 800.031L416.168 790.051H403.527L386.228 782.733L377.579 768.761L366.268 752.793L370.926 746.805V738.156L366.268 729.506L356.954 717.53V705.554L353.627 673.619L348.97 645.009V618.396V593.779L335.663 578.476L319.03 567.831L308.385 553.194L297.739 535.895L288.425 513.939L281.106 510.612V495.31L288.425 489.322L281.106 480.673L288.425 466.701L297.739 452.063L302.397 445.41V436.095L297.739 420.127V415.47L302.397 420.127L308.385 415.47L315.038 407.486H322.356L329.01 398.837H335.663L338.99 410.813L335.663 420.127L329.01 410.813L343.647 402.164H353.627L359.615 407.486L370.26 410.813L382.902 407.486L390.886 410.813L406.188 429.442L412.841 436.095H423.487L438.789 440.753L445.443 452.063L450.1 462.043V470.027L458.084 474.685L465.403 480.673H474.717L479.375 483.999L488.689 489.322H502.661L513.972 495.31L526.613 502.628L533.932 505.955V513.939V525.25L523.286 542.548L513.972 553.194V567.831V588.456L502.661 607.751L493.346 611.077L479.375 618.396L469.395 627.711V637.025L465.403 654.989L454.092 673.619L445.443 681.602H437.459H430.14L434.132 688.921V699.566L425.483 705.554H416.168V717.53H403.527V724.849L408.849 729.506L403.527 741.482V746.805V752.793L408.849 760.777V768.761L403.527 776.745L408.849 782.733L403.527 800.031H412.841L420.825 803.358L434.132 800.031Z" stroke="#3D4151" stroke-width="2.1" stroke-dasharray="24.15 24.15"/>
<path d="M1547.23 522.588L1561.87 536.56L1557.21 541.218L1547.23 536.56L1535.92 526.58L1529.26 522.588H1521.95L1517.29 529.907L1503.98 526.58L1496.66 522.588H1490.01L1496.66 512.608L1490.01 506.62L1471.38 499.302L1461.4 495.975V489.322L1454.75 478.011H1471.38V483.334L1478.7 495.975L1485.35 489.322L1496.66 483.334L1508.64 489.322L1529.26 495.975L1543.24 506.62L1547.23 522.588Z" stroke="#3D4151" stroke-width="2.1" stroke-dasharray="24.15 24.15"/>
<path d="M1358.94 447.406L1345.63 457.386L1332.33 464.04L1334.99 479.342L1341.64 489.987L1358.94 496.641H1372.25V489.987L1382.23 476.016L1386.22 470.693V461.378L1382.23 453.394L1386.22 442.084L1382.23 435.43H1372.25L1358.94 447.406Z" stroke="#3D4151" stroke-width="2.1" stroke-dasharray="24.15 24.15"/>
<path d="M1348.96 512.609L1363.6 521.258L1356.28 525.25L1341.64 521.258H1330.33H1317.02L1313.7 512.609H1325.01H1336.32H1348.96Z" stroke="#3D4151" stroke-width="2.1" stroke-dasharray="24.15 24.15"/>
<path d="M1314.36 491.983V501.963C1314.36 509.947 1305.05 508.838 1300.39 507.286L1291.08 497.306L1282.43 478.677L1269.12 459.382L1257.81 448.737V439.422L1279.77 448.737L1286.42 459.382L1300.39 469.362V476.015L1314.36 491.983Z" stroke="#3D4151" stroke-width="2.1" stroke-dasharray="24.15 24.15"/>
<path d="M1386.22 378.877L1389.55 365.57C1390.88 360.248 1394.98 363.353 1396.86 365.57V378.877L1404.18 384.865L1412.17 397.506L1423.48 410.813L1428.13 423.454V438.092H1418.82L1412.17 430.773L1404.18 414.14L1396.86 397.506L1386.22 378.877Z" stroke="#3D4151" stroke-width="2.1" stroke-dasharray="24.15 24.15"/>
<path d="M1288.42 454.06L1282.43 436.096L1271.12 418.797V398.172L1279.1 406.156V414.806L1282.43 422.124L1288.42 429.443L1299.73 436.096L1304.38 447.407V463.375H1299.73L1288.42 454.06Z" stroke="#3D4151" stroke-width="2.1" stroke-dasharray="24.15 24.15"/>
<path d="M1231.2 348.937L1225.21 337.627L1204.58 340.953L1199.93 354.26L1189.28 361.579L1169.32 380.208L1165.99 390.853V411.478C1164.4 424.253 1155.57 422.124 1151.36 419.462L1139.38 395.51L1124.74 361.579V344.945H1116.09H1106.78V334.3H1096.8L1085.49 318.332L1078.17 324.32L1059.54 318.332H1042.91L1032.93 310.348L1009.64 307.687L998.996 295.046L991.677 289.058L987.02 295.046L995.004 304.36L998.996 318.332H1009.64L1016.96 327.647L1028.94 318.332L1035.59 324.32L1049.56 334.3V344.945L1038.92 361.579L1024.94 368.232L1009.64 376.881L995.004 384.865L983.693 395.51H969.721L963.068 384.865V372.889L955.749 361.579L943.108 348.937V337.627L923.148 314.34L917.16 298.372L909.841 304.36L901.857 282.404H913.833L917.16 266.436V251.799L905.849 255.791L891.212 251.799H875.244L866.595 234.5V228.512H858.611L850.627 234.5L854.619 243.815L850.627 251.799L841.312 247.142L844.639 240.488L833.328 234.5L828.671 217.202L816.695 209.883L799.396 197.907C791.945 190.988 794.074 198.573 796.07 203.23L804.719 213.21C811.594 218.311 824.28 228.512 820.022 228.512C815.764 228.512 816.03 238.714 816.695 243.815L804.719 228.512L786.09 213.21L776.775 206.557L760.142 213.21H750.827L744.839 223.855L730.867 234.5V247.142L714.234 251.799H698.932L686.956 243.815L691.613 213.21H718.891L724.879 206.557V192.585L714.234 180.609L730.867 177.282L744.839 169.298L763.469 154.661H770.787L776.775 148.673V136.032L784.094 130.044V138.693L792.743 136.032V126.717L786.09 122.06L776.775 126.717L766.795 122.06V104.761L796.07 82.805L816.695 67.5024L833.328 58.1878H861.938L879.236 67.5024L905.849 70.8291C914.366 77.7485 909.398 81.6962 905.849 82.805H895.204L879.236 77.4824L895.204 90.789H905.849L913.833 82.805L923.148 77.4824L927.14 70.8291L938.451 77.4824L955.749 70.8291H978.37L1001.66 67.5024H1016.29L1008.31 58.1878L1011.64 51.5345H1025.61L1034.92 58.1878L1048.9 51.5345L1059.54 44.8812H1074.18V37.5626L1096.13 32.2399H1110.11L1117.42 26.9173H1130.07L1142.71 32.2399H1161.34L1165.99 37.5626L1161.34 44.8812L1185.95 48.2078H1191.28H1203.25H1214.56H1235.85L1259.81 58.1878H1273.78H1285.09L1288.41 48.2078L1310.37 51.5345L1336.32 58.1878H1358.94H1374.24L1391.54 67.5024H1424.14L1430.13 63.5105H1446.1L1470.72 67.5024L1492.67 74.1557L1506.64 79.4784H1521.95L1531.26 89.4584H1511.97L1501.99 82.805L1492.67 89.4584L1506.64 96.1117V103.43L1492.67 113.41H1478.7C1464.86 117.136 1467.61 123.39 1470.72 126.052L1482.03 130.709L1485.35 148.007V165.971H1478.7L1461.4 148.007L1450.09 130.709L1455.41 108.753L1450.09 103.43L1442.11 108.753H1433.46H1424.14V120.064H1408.17H1384.22L1374.24 126.052L1367.59 142.019L1378.23 148.007H1388.88L1403.52 153.995H1411.5L1424.14 165.971L1433.46 175.286V182.605L1437.45 195.911L1430.13 191.919L1424.14 182.605L1414.83 169.298H1411.5L1414.83 182.605V195.911L1408.17 211.879H1397.53L1391.54 217.202L1388.88 225.186V231.174L1391.54 237.827L1403.52 246.476L1408.17 255.791L1403.52 263.11H1391.54L1388.88 251.134L1374.24 241.154L1367.59 231.174C1359.07 235.964 1356.06 233.17 1355.61 231.174L1347.63 225.186L1336.32 237.827L1347.63 246.476H1355.61L1367.59 251.134L1352.29 261.114L1367.59 275.086L1374.24 285.066L1378.23 299.038L1374.24 317.001L1367.59 330.308L1352.29 337.627L1336.32 340.953L1327.67 348.937L1319.02 340.953L1310.37 346.941L1306.38 357.587L1319.02 372.889L1327.67 387.527V404.16L1319.02 411.478L1313.03 419.462H1306.38V411.478L1295.07 404.16L1281.76 395.51H1277.1V404.16L1270.45 395.51L1265.13 380.208L1259.81 372.889L1253.15 376.881H1246.5V368.232L1241.84 357.587L1231.2 348.937Z" stroke="#3D4151" stroke-width="2.1" stroke-dasharray="24.15 24.15"/>
<path d="M1419.48 279.743L1416.16 270.428L1418.15 264.44L1424.14 258.452H1432.13L1441.44 252.464L1450.76 241.819L1446.76 233.17L1439.44 219.198V210.549V200.569L1448.09 206.557L1460.07 210.549L1456.74 217.202H1448.09V227.182H1454.08L1460.07 236.497V243.815L1462.73 252.464V263.11H1450.76L1443.44 270.428L1435.45 269.098H1429.46L1424.14 266.436L1420.82 269.098L1426.14 275.086L1424.14 283.07L1419.48 279.743Z" stroke="#3D4151" stroke-width="2.1" stroke-dasharray="24.15 24.15"/>
<path d="M1001.66 255.126L985.69 244.48V228.512L969.057 211.879V202.564L985.69 187.262L998.331 197.242L993.009 202.564H985.69V211.879L998.331 217.867H1006.98L1011.64 225.186L1001.66 228.512L1006.98 237.827L1011.64 247.807L1001.66 255.126Z" stroke="#3D4151" stroke-width="2.1" stroke-dasharray="24.15 24.15"/>
<path d="M898.532 221.859L883.23 227.182L873.915 213.875L877.907 201.899L891.214 191.254L898.532 201.899H909.178V191.254H921.819V201.899L933.129 209.218L943.775 221.859L933.129 227.182L916.496 221.859H898.532Z" stroke="#3D4151" stroke-width="2.1" stroke-dasharray="24.15 24.15"/>
<path d="M728.872 140.024L740.182 156.657L744.84 160.649L740.182 166.637L724.214 171.294H711.573L715.565 160.649V156.657L724.214 147.342L715.565 140.024V134.036V127.382H724.214L728.872 140.024Z" stroke="#3D4151" stroke-width="2.1" stroke-dasharray="24.15 24.15"/>
<path d="M692.279 149.338L702.925 144.681C711.441 140.955 709.578 146.234 707.582 149.338L702.925 159.318L692.279 164.641V149.338Z" stroke="#3D4151" stroke-width="2.1" stroke-dasharray="24.15 24.15"/>
<path d="M645.706 89.4582L660.343 84.8009H676.977L684.295 89.4582L669.658 98.1075H653.69L645.706 89.4582Z" stroke="#3D4151" stroke-width="2.1" stroke-dasharray="24.15 24.15"/>
<path d="M523.951 84.1355L530.604 73.4902C539.652 69.7643 539.697 62.1796 538.588 58.8529L530.604 44.2156L515.967 32.2397H504.656L493.345 27.5824V20.2637H515.967L530.604 12.9451L551.229 8.95309L583.83 12.9451L603.79 5.62643H642.379H669.658L685.626 12.9451L675.646 27.5824L669.658 38.893L657.017 44.2156L647.037 50.2036L657.017 58.8529L647.037 64.1755L628.408 70.1635L615.101 73.4902L603.79 78.1475L583.83 84.1355L565.201 94.1154L551.229 113.41H538.588L523.951 102.765V84.1355Z" stroke="#3D4151" stroke-width="2.1" stroke-dasharray="24.15 24.15"/>
<path d="M452.094 16.2719L439.453 27.5826L455.421 33.5705L468.062 27.5826L484.03 22.2599L513.305 16.2719L532.599 2.3L498.002 6.29199H474.715V16.2719H468.062H452.094Z" stroke="#3D4151" stroke-width="2.1" stroke-dasharray="24.15 24.15"/>
<path d="M420.824 45.5466H407.517L394.211 52.8652L407.517 60.8492H420.824H436.126L448.102 75.4864V80.1438H436.126L428.143 89.4584L436.126 99.4383L452.094 104.096L462.074 94.781V84.8011H467.397C482.3 88.5269 482.034 83.2486 480.038 80.1438L472.054 69.4985L462.074 57.5225L452.094 52.8652H444.11L436.126 48.8732L420.824 45.5466Z" stroke="#3D4151" stroke-width="2.1" stroke-dasharray="24.15 24.15"/>
<path d="M279.11 40.8897L269.13 45.547L257.154 50.2043L261.146 57.5229L269.13 50.2043H282.436L287.759 57.5229L279.11 68.1682H291.086H299.07H309.715L321.691 65.5069L335.663 63.5109V57.5229V50.2043H331.006H325.018L319.03 45.547L312.376 50.2043L303.727 45.547L291.086 40.8897H279.11Z" stroke="#3D4151" stroke-width="2.1" stroke-dasharray="24.15 24.15"/>
<path d="M467.397 174.621L480.038 182.605L467.397 186.597H454.756L448.768 182.605L454.756 177.948L467.397 166.637V174.621Z" stroke="#3D4151" stroke-width="2.1" stroke-dasharray="24.15 24.15"/>
<path d="M338.988 242.485L362.275 224.521L376.912 219.863L386.226 208.553L402.194 199.903H408.182V208.553H418.162L433.465 199.903L418.162 193.25L423.485 179.278H412.174L418.162 168.633H436.792H451.429L466.066 161.314L476.046 152L466.066 148.673L458.748 138.028L454.756 115.406L436.792 125.386L430.138 115.406V108.088L408.182 101.434L396.872 108.088L390.218 122.06V131.374L376.912 143.35L365.601 148.673V157.322L355.621 165.306L348.968 157.322L352.96 141.354L338.988 138.028L330.339 131.374L317.032 122.06L325.681 108.088L343.645 101.434L355.621 94.7811L370.924 90.1238L380.239 84.8011L396.872 90.1238L392.88 98.7731L376.912 94.7811L386.226 79.4785H402.194L412.174 72.1599V64.8412H402.194L386.226 72.1599L380.239 64.8412L376.912 54.1959L365.601 58.8532V64.8412L355.621 72.1599V64.8412H348.968V72.1599H338.988L325.681 75.4865L317.032 72.1599L301.064 75.4865V79.4785L283.1 75.4865L264.471 64.8412H243.18H225.882L198.603 72.1599L179.974 64.8412L134.066 58.8532H114.772L88.8237 64.8412L80.1744 68.8332C75.9606 68.8332 68.3315 70.9623 71.5251 79.4785L60.8798 84.8011H47.5732C46.2425 86.7971 45.311 91.5875 52.2305 94.7811L42.2505 101.434H30.2746L24.2866 112.08L15.6373 115.406L24.2866 122.06L1 141.354L42.2505 125.386L64.8717 115.406H71.5251L92.8156 108.088L111.445 115.406L125.417 125.386L132.07 134.036C129.852 142.02 125.417 160.117 125.417 168.633C137.393 168.633 145.377 181.274 138.723 183.935C133.401 186.064 120.538 201.234 114.772 208.553L99.4689 229.178L104.126 263.775L114.772 278.412V291.054L119.429 309.683L125.417 323.655L132.07 331.639V309.683L125.417 297.042V287.062H132.07V302.364L142.715 318.998L155.357 338.957V354.26L184.631 372.889H211.245L221.224 384.865L238.523 391.519H245.176L251.164 402.829L263.14 418.132L279.774 426.781L292.415 418.132H279.774L266.467 402.829V377.547H251.164L245.176 372.889L251.164 350.933C253.604 347.385 255.156 341.353 241.85 345.611L232.535 358.252L217.232 363.575L206.587 354.26L199.269 338.957L206.587 314.34L211.245 302.364L232.535 291.054L251.164 297.042L266.467 287.062L276.447 291.054L288.423 297.042V314.34L292.415 318.998L301.064 314.34V302.364L295.742 287.062L308.383 278.412L319.028 269.763L335.661 263.775V249.138L338.988 242.485Z" stroke="#3D4151" stroke-width="2.1" stroke-dasharray="24.15 24.15"/>
<path d="M343.647 362.91H325.017L330.34 352.264H336.993L355.622 356.256L343.647 362.91Z" stroke="#3D4151" stroke-width="2.1" stroke-dasharray="24.15 24.15"/>
<path d="M297.739 332.969H275.783L281.771 337.627L293.082 343.615L303.062 350.933L323.687 347.607L317.034 343.615L297.739 332.969Z" stroke="#3D4151" stroke-width="2.1" stroke-dasharray="24.15 24.15"/>
<path d="M288.422 193.25H307.051L295.075 203.23L288.422 217.867L291.749 223.855L299.733 217.867L307.051 199.903H319.027V210.548L332.999 203.23V193.25H325.681L319.027 189.258L312.374 181.939H295.075L288.422 193.25Z" stroke="#3D4151" stroke-width="2.1" stroke-dasharray="24.15 24.15"/>
<path d="M404.854 36.2319L437.455 42.2199L444.774 36.2319H425.479L413.503 30.2439L404.854 36.2319Z" stroke="#3D4151" stroke-width="2.1" stroke-dasharray="24.15 24.15"/>
<path d="M440.784 10.284L436.127 19.5986H426.812L417.497 16.272L426.812 10.284H440.784Z" stroke="#3D4151" stroke-width="2.1" stroke-dasharray="24.15 24.15"/>
<path d="M808.045 140.689L814.032 129.378L818.024 121.394L821.351 115.406L814.032 107.422V100.104L828.004 95.4462L836.654 82.1396L845.968 89.4582L833.327 100.104L836.654 112.079H859.275L867.924 115.406L859.275 121.394H845.968V129.378H836.654V140.689L828.004 146.677H821.351L808.045 151.334L801.391 146.677H787.419L796.069 140.689H808.045Z" stroke="#3D4151" stroke-width="2.1" stroke-dasharray="24.15 24.15"/>
<path d="M1386.22 491.318L1392.21 476.016C1389.01 471.225 1393.54 466.479 1396.2 464.705C1396.2 461.511 1413.5 463.374 1422.15 464.705C1422.15 475.35 1409.73 471.802 1403.52 468.697L1398.86 473.354L1400.86 480.008H1410.84L1403.52 485.996L1407.51 495.31L1403.52 499.968L1398.86 491.318L1396.2 495.31V507.286L1386.22 505.29V491.318Z" stroke="#3D4151" stroke-width="2.1" stroke-dasharray="24.15 24.15"/>
</svg>
