<svg width="28" height="28" viewBox="0 0 28 28" fill="none" xmlns="http://www.w3.org/2000/svg">
<path d="M22.0946 22.3232C20.4912 23.8779 18.1591 24.8497 16.3128 24.9954C15.001 25.1412 13.6406 25.1412 12.3288 24.9954C10.3853 24.7525 8.97634 24.218 7.56734 23.6836C8.24754 23.0034 8.97634 22.0802 9.26785 21.2543C9.4622 20.7684 9.41361 20.234 9.21927 19.7967C7.7131 16.7358 8.3933 13.0918 10.8226 10.7111C12.5717 8.96194 15.001 8.18456 17.4789 8.47608C19.2766 8.71901 20.9285 9.49639 22.2403 10.7596C25.3498 13.9177 25.2527 19.2136 22.0946 22.3232ZM23.9894 8.7676C22.872 7.65012 21.5601 6.82415 20.1511 6.2897C20.9771 3.90897 23.8923 3.03442 23.8923 3.03442C23.8923 3.03442 17.1874 -0.463794 9.8023 0.945208C7.32441 1.3339 4.94369 2.84007 3.24318 4.83211C-0.49795 9.15629 -0.0120891 15.7154 4.36066 19.408C5.04086 19.991 6.54703 20.8656 6.54703 20.9142C5.57531 23.4407 2.41721 24.1209 2.41721 24.1209C2.41721 24.1209 6.59562 26.7445 12.183 27.4247C13.6892 27.6191 15.2439 27.6677 16.8473 27.4733C19.4223 27.279 21.9974 25.87 23.9894 23.9751C28.1678 19.7967 28.2164 12.9946 23.9894 8.7676Z" fill="#8A87A9"/>
</svg>
