<svg width="72" height="16" viewBox="0 0 72 16" fill="none" xmlns="http://www.w3.org/2000/svg">
<path d="M62.486 1.83625C62.486 1.01029 61.7572 0.330078 60.9798 0.330078C60.1539 0.330078 59.4737 1.01029 59.4737 1.83625C59.4737 2.66222 60.2025 3.34243 60.9798 3.34243C61.7572 3.34243 62.486 2.71081 62.486 1.83625ZM62.1945 4.8486H59.7652V15.5862H62.1945V4.8486ZM50.1451 6.06326C49.5621 5.2373 48.4932 4.65426 47.2785 4.65426C46.0639 4.65426 45.0922 5.09154 44.5577 5.77174V4.89719H42.1284V15.6348H44.5577V8.3954C44.8007 7.32651 45.6266 6.79206 46.5012 6.79206C47.7158 6.79206 48.2989 7.66661 48.2989 8.97844V15.5862H50.7282V8.3954C50.9711 7.32651 51.7971 6.79206 52.6716 6.79206C53.8863 6.79206 54.4693 7.66661 54.4693 8.97844V15.5862H56.8986V8.63834C56.8986 6.20902 55.5868 4.65426 53.4004 4.65426C51.8942 4.65426 50.8739 5.18871 50.1451 6.06326ZM35.2778 6.69488C33.9174 6.69488 32.9456 7.52085 32.6541 9.07561H37.5613C37.5127 7.76378 36.7839 6.69488 35.2778 6.69488ZM37.6099 12.2823H39.8449C39.4562 14.4201 37.9014 15.8777 35.2778 15.8777C32.2654 15.8777 30.1762 13.5941 30.1762 10.2903C30.1762 7.08357 32.314 4.65426 35.2292 4.65426C38.2901 4.65426 39.942 6.79206 39.942 9.95017V10.8247H32.5569C32.6541 12.7196 33.723 13.8371 35.2778 13.8371C36.4924 13.8371 37.367 13.3026 37.6099 12.2823ZM24.0058 6.69488C22.6454 6.69488 21.6736 7.52085 21.3821 9.07561H26.2893C26.2407 7.76378 25.5119 6.69488 24.0058 6.69488ZM26.3379 12.2823H28.5729C28.1842 14.4201 26.6294 15.8777 24.0058 15.8777C20.9934 15.8777 18.9042 13.5941 18.9042 10.2903C18.9042 7.08357 21.042 4.65426 23.9572 4.65426C27.0181 4.65426 28.67 6.79206 28.67 9.95017V10.8247H21.2849C21.3821 12.7196 22.451 13.8371 24.0058 13.8371C25.2204 13.8371 26.095 13.3026 26.3379 12.2823ZM66.13 12.7196C66.13 14.8574 67.4904 15.8777 69.4338 15.8777C70.2112 15.8777 70.8428 15.7319 71.2801 15.489V13.3026C70.94 13.5456 70.357 13.7399 69.8711 13.7399C69.0451 13.7399 68.5593 13.3512 68.5593 12.4767V6.88923H70.9886V4.89719H68.5593V2.0306H66.13V3.68253C66.13 4.55709 65.4012 4.89719 64.9153 4.89719H64.4295V6.88923H66.13V12.7196ZM12.1993 12.7196C12.1993 14.8574 13.5597 15.8777 15.5032 15.8777C16.2806 15.8777 16.9122 15.7319 17.3495 15.489V13.3026C17.0094 13.5456 16.4263 13.7399 15.9405 13.7399C15.1145 13.7399 14.6286 13.3512 14.6286 12.4767V6.88923H17.0579V4.89719H14.6286V2.0306H12.1993V3.68253C12.1993 4.55709 11.4705 4.89719 10.9847 4.89719H10.4988V6.88923H12.1993V12.7196ZM0.441483 12.5252C0.781586 14.6145 2.53069 15.8777 5.05717 15.8777C7.48648 15.8777 9.28416 14.5659 9.28416 12.4281C9.28416 10.8733 8.36103 9.80441 6.51475 9.36713L4.2312 8.83268C3.45382 8.63834 3.11372 8.34682 3.11372 7.86096C3.11372 7.03499 3.98827 6.6463 4.86282 6.6463C5.9803 6.6463 6.61192 7.13216 6.85486 7.81237H9.23558C8.84689 5.86892 7.43789 4.65426 4.91141 4.65426C2.53069 4.65426 0.83017 6.06326 0.83017 8.00671C0.83017 9.75582 1.99624 10.5818 3.50241 10.9705L5.73737 11.5049C6.66051 11.6993 7.00062 12.0394 7.00062 12.6224C7.00062 13.4484 6.27182 13.8857 5.15434 13.8857C4.08544 13.8857 3.25948 13.4484 3.01655 12.5252H0.441483Z" fill="#8A87A9"/>
</svg>
