<svg width="420" height="327" viewBox="0 0 420 327" fill="none" xmlns="http://www.w3.org/2000/svg">
<mask id="path-1-inside-1_105_19" fill="white">
<path fill-rule="evenodd" clip-rule="evenodd" d="M7.15001 154.55V197.6H0.850006V326.75H419.8L419.8 219.65L419.8 197.6L419.8 47.9751L411.547 62.6751L403.294 47.9751L395.041 62.6751L386.788 31.7001L378.535 71.0751L370.282 55.3251L362.029 29.0751L353.125 38.0001L345.523 0.725098L337.27 44.3001L329.017 29.0751L320.764 52.7001L312.511 61.1001L304.258 53.2251L296.005 64.7751L287.752 98.9001L279.499 79.4751L271.246 103.1L262.993 94.7001L254.74 120.425L246.487 111.5L238.234 137.225L229.981 98.9001L221.728 79.4751L213.475 120.425L205.222 114.125L196.969 98.9001L188.716 128.3L180.463 138.275L172.21 120.95L163.957 136.7L155.704 87.8751L147.451 106.775L139.198 72.1251L130.945 120.95L122.692 112.55L114.439 138.275L106.186 146.15L97.933 133.55L89.68 131.975L81.427 113.075L73.174 108.35L64.921 124.625L56.668 113.075L48.415 151.4L40.162 139.325L31.909 158.75L23.656 151.4L15.403 171.875L7.15001 154.55Z"/>
</mask>
<path fill-rule="evenodd" clip-rule="evenodd" d="M7.15001 154.55V197.6H0.850006V326.75H419.8L419.8 219.65L419.8 197.6L419.8 47.9751L411.547 62.6751L403.294 47.9751L395.041 62.6751L386.788 31.7001L378.535 71.0751L370.282 55.3251L362.029 29.0751L353.125 38.0001L345.523 0.725098L337.27 44.3001L329.017 29.0751L320.764 52.7001L312.511 61.1001L304.258 53.2251L296.005 64.7751L287.752 98.9001L279.499 79.4751L271.246 103.1L262.993 94.7001L254.74 120.425L246.487 111.5L238.234 137.225L229.981 98.9001L221.728 79.4751L213.475 120.425L205.222 114.125L196.969 98.9001L188.716 128.3L180.463 138.275L172.21 120.95L163.957 136.7L155.704 87.8751L147.451 106.775L139.198 72.1251L130.945 120.95L122.692 112.55L114.439 138.275L106.186 146.15L97.933 133.55L89.68 131.975L81.427 113.075L73.174 108.35L64.921 124.625L56.668 113.075L48.415 151.4L40.162 139.325L31.909 158.75L23.656 151.4L15.403 171.875L7.15001 154.55Z" fill="url(#paint0_linear_105_19)"/>
<path d="M7.15001 197.6V200.75H10.3V197.6H7.15001ZM7.15001 154.55L9.99382 153.195L4.00001 154.55H7.15001ZM0.850006 197.6V194.45H-2.29999V197.6H0.850006ZM0.850006 326.75H-2.29999V329.9H0.850006V326.75ZM419.8 326.75V329.9H422.95V326.75L419.8 326.75ZM419.8 219.65H422.95H419.8ZM419.8 197.6H416.65H419.8ZM419.8 47.9751H422.95V35.9299L417.053 46.433L419.8 47.9751ZM411.547 62.6751L408.8 64.2172L411.547 69.1096L414.294 64.2172L411.547 62.6751ZM403.294 47.9751L406.041 46.433L403.294 41.5406L400.547 46.433L403.294 47.9751ZM395.041 62.6751L391.997 63.4861L393.993 70.9764L397.788 64.2172L395.041 62.6751ZM386.788 31.7001L389.832 30.8891L383.705 31.0539L386.788 31.7001ZM378.535 71.0751L375.745 72.5371L379.818 80.31L381.618 71.7213L378.535 71.0751ZM370.282 55.3251L367.277 56.2699L367.361 56.5381L367.492 56.7871L370.282 55.3251ZM362.029 29.0751L365.034 28.1303L363.474 23.1671L359.799 26.8503L362.029 29.0751ZM353.125 38.0001L350.039 38.6296L351.211 44.3786L355.355 40.2249L353.125 38.0001ZM345.523 0.725098L348.609 0.0956332L342.428 0.138915L345.523 0.725098ZM337.27 44.3001L334.501 45.8012L338.718 53.5815L340.365 44.8863L337.27 44.3001ZM329.017 29.0751L331.786 27.5739L328.392 21.3124L326.043 28.0363L329.017 29.0751ZM320.764 52.7001L323.011 54.9077L323.505 54.4047L323.738 53.7389L320.764 52.7001ZM312.511 61.1001L310.336 63.3791L312.582 65.5221L314.758 63.3077L312.511 61.1001ZM304.258 53.2251L306.433 50.9461L303.806 48.4397L301.695 51.3938L304.258 53.2251ZM296.005 64.7751L293.442 62.9438L293.087 63.4408L292.943 64.0346L296.005 64.7751ZM287.752 98.9001L284.853 100.132L288.576 108.894L290.814 99.6406L287.752 98.9001ZM279.499 79.4751L282.398 78.2433L279.212 70.7445L276.525 78.4363L279.499 79.4751ZM271.246 103.1L268.999 105.308L272.549 108.921L274.22 104.139L271.246 103.1ZM262.993 94.7001L265.24 92.4925L261.586 88.7736L259.994 93.7378L262.993 94.7001ZM254.74 120.425L252.427 122.564L256.091 126.526L257.739 121.387L254.74 120.425ZM246.487 111.5L248.8 109.361L245.136 105.399L243.488 110.538L246.487 111.5ZM238.234 137.225L235.155 137.888L237.635 149.405L241.233 138.187L238.234 137.225ZM229.981 98.9001L233.06 98.237L232.997 97.9441L232.88 97.6683L229.981 98.9001ZM221.728 79.4751L224.627 78.2433L220.65 68.8815L218.64 78.8528L221.728 79.4751ZM213.475 120.425L211.564 122.929L215.568 125.985L216.563 121.047L213.475 120.425ZM205.222 114.125L202.453 115.626L202.774 116.219L203.311 116.629L205.222 114.125ZM196.969 98.9001L199.738 97.3989L196.036 90.5689L193.936 98.0488L196.969 98.9001ZM188.716 128.3L191.143 130.308L191.568 129.794L191.749 129.151L188.716 128.3ZM180.463 138.275L177.619 139.63L179.743 144.087L182.89 140.283L180.463 138.275ZM172.21 120.95L175.054 119.595L172.344 113.907L169.42 119.488L172.21 120.95ZM163.957 136.7L160.851 137.225L162.409 146.441L166.747 138.162L163.957 136.7ZM155.704 87.8751L158.81 87.3501L157.048 76.9259L152.817 86.6145L155.704 87.8751ZM147.451 106.775L144.387 107.505L146.569 116.667L150.338 108.036L147.451 106.775ZM139.198 72.1251L142.262 71.3952L136.092 71.6001L139.198 72.1251ZM130.945 120.95L128.698 123.158L133.023 127.559L134.051 121.475L130.945 120.95ZM122.692 112.55L124.939 110.342L121.285 106.624L119.693 111.588L122.692 112.55ZM114.439 138.275L116.614 140.554L117.194 140.001L117.438 139.237L114.439 138.275ZM106.186 146.15L103.551 147.876L105.624 151.041L108.361 148.429L106.186 146.15ZM97.933 133.55L100.568 131.824L99.836 130.706L98.5235 130.456L97.933 133.55ZM89.68 131.975L86.7932 133.236L87.4579 134.758L89.0895 135.069L89.68 131.975ZM81.427 113.075L84.3138 111.815L83.8967 110.859L82.9921 110.341L81.427 113.075ZM73.174 108.35L74.7391 105.616L71.8633 103.97L70.3646 106.925L73.174 108.35ZM64.921 124.625L62.3581 126.456L65.3798 130.685L67.7304 126.05L64.921 124.625ZM56.668 113.075L59.2309 111.244L55.0886 105.447L53.5886 112.412L56.668 113.075ZM48.415 151.4L45.8144 153.178L49.9511 159.23L51.4944 152.063L48.415 151.4ZM40.162 139.325L42.7626 137.548L39.514 132.795L37.2628 138.093L40.162 139.325ZM31.909 158.75L29.814 161.102L33.0918 164.022L34.8082 159.982L31.909 158.75ZM23.656 151.4L25.751 149.048L22.408 146.07L20.7344 150.222L23.656 151.4ZM15.403 171.875L12.5592 173.23L15.6435 179.704L18.3246 173.053L15.403 171.875ZM10.3 197.6V154.55H4.00001V197.6H10.3ZM0.850006 200.75H7.15001V194.45H0.850006V200.75ZM4.00001 326.75V197.6H-2.29999V326.75H4.00001ZM419.8 323.6H0.850006V329.9H419.8V323.6ZM416.65 219.65L416.65 326.75L422.95 326.75L422.95 219.65H416.65ZM416.65 197.6L416.65 219.65H422.95L422.95 197.6H416.65ZM416.65 47.9751L416.65 197.6H422.95L422.95 47.9751H416.65ZM414.294 64.2172L422.547 49.5172L417.053 46.433L408.8 61.133L414.294 64.2172ZM400.547 49.5172L408.8 64.2172L414.294 61.133L406.041 46.433L400.547 49.5172ZM397.788 64.2172L406.041 49.5172L400.547 46.433L392.294 61.133L397.788 64.2172ZM383.744 32.5111L391.997 63.4861L398.085 61.8641L389.832 30.8891L383.744 32.5111ZM381.618 71.7213L389.871 32.3463L383.705 31.0539L375.452 70.4289L381.618 71.7213ZM367.492 56.7871L375.745 72.5371L381.325 69.6131L373.072 53.8631L367.492 56.7871ZM359.024 30.0199L367.277 56.2699L373.287 54.3803L365.034 28.1303L359.024 30.0199ZM355.355 40.2249L364.259 31.2999L359.799 26.8503L350.895 35.7753L355.355 40.2249ZM342.437 1.35456L350.039 38.6296L356.211 37.3706L348.609 0.0956332L342.437 1.35456ZM340.365 44.8863L348.618 1.31128L342.428 0.138915L334.175 43.7139L340.365 44.8863ZM326.248 30.5762L334.501 45.8012L340.039 42.7989L331.786 27.5739L326.248 30.5762ZM323.738 53.7389L331.991 30.1139L326.043 28.0363L317.79 51.6613L323.738 53.7389ZM314.758 63.3077L323.011 54.9077L318.517 50.4925L310.264 58.8925L314.758 63.3077ZM302.083 55.5041L310.336 63.3791L314.686 58.8211L306.433 50.9461L302.083 55.5041ZM298.568 66.6064L306.821 55.0564L301.695 51.3938L293.442 62.9438L298.568 66.6064ZM290.814 99.6406L299.067 65.5156L292.943 64.0346L284.69 98.1596L290.814 99.6406ZM276.6 80.7069L284.853 100.132L290.651 97.6683L282.398 78.2433L276.6 80.7069ZM274.22 104.139L282.473 80.5139L276.525 78.4363L268.272 102.061L274.22 104.139ZM260.746 96.9077L268.999 105.308L273.493 100.892L265.24 92.4925L260.746 96.9077ZM257.739 121.387L265.992 95.6624L259.994 93.7378L251.741 119.463L257.739 121.387ZM244.174 113.639L252.427 122.564L257.053 118.286L248.8 109.361L244.174 113.639ZM241.233 138.187L249.486 112.462L243.488 110.538L235.235 136.263L241.233 138.187ZM226.902 99.5632L235.155 137.888L241.313 136.562L233.06 98.237L226.902 99.5632ZM218.829 80.7069L227.082 100.132L232.88 97.6683L224.627 78.2433L218.829 80.7069ZM216.563 121.047L224.816 80.0974L218.64 78.8528L210.387 119.803L216.563 121.047ZM203.311 116.629L211.564 122.929L215.386 117.921L207.133 111.621L203.311 116.629ZM194.2 100.401L202.453 115.626L207.991 112.624L199.738 97.3989L194.2 100.401ZM191.749 129.151L200.002 99.7514L193.936 98.0488L185.683 127.449L191.749 129.151ZM182.89 140.283L191.143 130.308L186.289 126.292L178.036 136.267L182.89 140.283ZM169.366 122.305L177.619 139.63L183.307 136.92L175.054 119.595L169.366 122.305ZM166.747 138.162L175 122.412L169.42 119.488L161.167 135.238L166.747 138.162ZM152.598 88.4001L160.851 137.225L167.063 136.175L158.81 87.3501L152.598 88.4001ZM150.338 108.036L158.591 89.1357L152.817 86.6145L144.564 105.515L150.338 108.036ZM136.134 72.8549L144.387 107.505L150.515 106.045L142.262 71.3952L136.134 72.8549ZM134.051 121.475L142.304 72.6501L136.092 71.6001L127.839 120.425L134.051 121.475ZM120.445 114.758L128.698 123.158L133.192 118.742L124.939 110.342L120.445 114.758ZM117.438 139.237L125.691 113.512L119.693 111.588L111.44 137.313L117.438 139.237ZM108.361 148.429L116.614 140.554L112.264 135.996L104.011 143.871L108.361 148.429ZM95.2979 135.276L103.551 147.876L108.821 144.424L100.568 131.824L95.2979 135.276ZM89.0895 135.069L97.3425 136.644L98.5235 130.456L90.2705 128.881L89.0895 135.069ZM78.5402 114.336L86.7932 133.236L92.5668 130.715L84.3138 111.815L78.5402 114.336ZM71.6089 111.084L79.8619 115.809L82.9921 110.341L74.7391 105.616L71.6089 111.084ZM67.7304 126.05L75.9834 109.775L70.3646 106.925L62.1116 123.2L67.7304 126.05ZM54.1051 114.906L62.3581 126.456L67.4839 122.794L59.2309 111.244L54.1051 114.906ZM51.4944 152.063L59.7474 113.738L53.5886 112.412L45.3356 150.737L51.4944 152.063ZM37.5614 141.103L45.8144 153.178L51.0156 149.623L42.7626 137.548L37.5614 141.103ZM34.8082 159.982L43.0612 140.557L37.2628 138.093L29.0098 157.518L34.8082 159.982ZM21.561 153.752L29.814 161.102L34.004 156.398L25.751 149.048L21.561 153.752ZM18.3246 173.053L26.5776 152.578L20.7344 150.222L12.4814 170.697L18.3246 173.053ZM4.30619 155.905L12.5592 173.23L18.2468 170.52L9.99382 153.195L4.30619 155.905Z" fill="#0267FF" mask="url(#path-1-inside-1_105_19)"/>
<defs>
<linearGradient id="paint0_linear_105_19" x1="212.593" y1="36.5223" x2="212.593" y2="318.561" gradientUnits="userSpaceOnUse">
<stop stop-color="#061033"/>
<stop offset="1" stop-color="#171D33" stop-opacity="0"/>
</linearGradient>
</defs>
</svg>
