<svg width="25" height="27" viewBox="0 0 25 27" fill="none" xmlns="http://www.w3.org/2000/svg">
<path d="M21.6375 16.2616C20.7258 15.7352 19.6992 15.5827 18.6825 15.5472C17.8292 15.5173 16.5563 14.9707 16.5563 13.4187C16.5563 12.2623 17.4937 11.3317 18.6828 11.2902C19.6996 11.2547 20.726 11.1019 21.6375 10.5757C22.4562 10.103 23.136 9.4232 23.6086 8.60453C24.0813 7.78586 24.3301 6.8572 24.3301 5.91189C24.3301 4.96657 24.0813 4.03792 23.6086 3.21926C23.1359 2.4006 22.4561 1.72079 21.6374 1.24815C20.8187 0.775515 19.8901 0.526706 18.9447 0.526733C17.9994 0.526761 17.0708 0.775625 16.2521 1.24831C15.4335 1.721 14.7537 2.40085 14.2811 3.21954C13.8084 4.03822 13.5596 4.96689 13.5597 5.91221C13.5597 6.95562 13.9308 7.91567 14.4043 8.8063C14.8025 9.5553 15.004 10.9455 13.6382 11.734C12.6222 12.3206 11.3541 11.9491 10.7207 10.9355C10.1857 10.0793 9.53979 9.27712 8.63559 8.75493C7.81696 8.2823 6.88833 8.03349 5.94306 8.0335C4.99778 8.03351 4.06916 8.28234 3.25053 8.75498C2.4319 9.22762 1.75211 9.90742 1.27947 10.7261C0.806836 11.5447 0.558014 12.4733 0.558014 13.4186C0.558014 14.3639 0.806836 15.2925 1.27947 16.1111C1.75211 16.9298 2.4319 17.6096 3.25053 18.0822C4.06916 18.5549 4.99778 18.8037 5.94306 18.8037C6.88833 18.8037 7.81696 18.5549 8.63559 18.0823C9.53955 17.5603 10.1854 16.7586 10.7201 15.903C11.1592 15.2003 12.2558 14.3048 13.6381 15.1035C14.6526 15.6896 14.9662 16.9739 14.4038 18.0317C13.9304 18.9221 13.5598 19.8821 13.5598 20.9252C13.5598 21.8705 13.8086 22.7991 14.2812 23.6178C14.7539 24.4364 15.4337 25.1163 16.2523 25.5889C17.071 26.0616 17.9996 26.3104 18.9449 26.3104C19.8902 26.3104 20.8188 26.0616 21.6374 25.5889C22.4561 25.1163 23.1359 24.4365 23.6085 23.6178C24.0812 22.7992 24.33 21.8705 24.33 20.9253C24.33 19.98 24.0811 19.0513 23.6085 18.2327C23.1358 17.4141 22.456 16.7343 21.6374 16.2616H21.6375Z" fill="#8A87A9"/>
</svg>
