<svg width="115" height="30" viewBox="0 0 115 30" fill="none" xmlns="http://www.w3.org/2000/svg">
<path d="M1.82501 27.7639C2.03955 26.9321 4.14386 16.2153 8.73584 17.606C12.7141 18.8108 10.9317 26.6599 11.9153 27.7639C14.2354 30.3681 18.8223 18.8184 23.1133 21.4313C24.9878 22.5727 25.3085 24.9799 26.4355 25.9638C28.1054 27.4216 25.5831 15.2448 26.4355 13.225C29.65 12.3984 28.9165 18.6796 34.375 19.525C38.4894 20.1623 34.375 9.50532 42.25 17.606C44.875 11.9612 42.2355 5.80392 43.5209 4.87638C45.2022 3.6633 45.9466 7.66849 46.9987 9.50532C48.2138 11.6269 50.9997 5.65755 52.4195 4.87638C53.9583 4.02973 56.7079 11.0386 58.0535 12.077C59.9323 13.5267 60.2454 9.14759 61.318 7.44802C61.7592 6.74885 63.0218 -6.72495 65.35 11.1251C65.9689 15.8701 66.7541 16.3446 69.025 15.3251C72.9049 13.5831 71.3253 1.9833 75.325 7.45C76.9 8.5 78.7164 2.66524 79.4759 1.9833C82.6733 -0.887745 84.1969 5.3978 86.1016 7.53564C86.844 8.36898 87.421 8.5 88.45 8.5C89.0427 8.5 89.6437 8.53591 89.882 7.7928C89.9431 7.60233 90.4851 1.56845 90.9603 1.9833C91.1346 2.13544 92.5999 7.53249 92.65 7.44802C93.2908 6.36915 95.5069 4.79915 96.7455 4.87638C97.7219 4.93727 100.338 11.2773 101.05 12.077C102.714 13.9451 104.67 4.36705 106.825 4.87638C109.37 5.47777 111.783 12.8151 113.125 15.3251" stroke="#11BBFF" stroke-width="2.1" stroke-linecap="round" stroke-linejoin="round"/>
</svg>
