<svg width="78" height="31" viewBox="0 0 78 31" fill="none" xmlns="http://www.w3.org/2000/svg">
<path d="M9.84251 11.6919C9.56288 11.5987 8.97284 11.5366 8.38268 11.5366C6.61233 11.5366 4.71766 12.9707 4.71766 14.7411V23.1837H0.680084V8.12016H4.56246V9.6419C5.46315 8.52386 7.1092 7.80951 8.94171 7.80951C9.39992 7.8128 9.85706 7.85434 10.3084 7.9337L9.84251 11.6919ZM14.4079 0.200073C15.8677 0.200073 17.0479 1.31824 17.0479 2.77795C17.0479 4.23778 15.8678 5.35582 14.4079 5.35582C12.948 5.35582 11.7678 4.23778 11.7678 2.77795C11.7678 1.31836 12.9482 0.200073 14.4079 0.200073ZM16.4267 23.1837H12.389V8.12016H16.4267V23.1837ZM28.3537 7.80878C26.7513 7.78851 25.1919 8.32716 23.9436 9.3321V8.12004H20.0602V30.6371H24.0983V22.1279C25.2466 23.0351 26.673 23.518 28.1362 23.4948C30.3727 23.4948 32.5152 22.5001 33.8508 20.9471C35.0316 19.5802 35.7446 17.7177 35.7446 15.6674C35.7446 11.2259 32.4527 7.80878 28.3537 7.80878ZM27.863 19.8289C25.3548 19.8289 23.7064 18.0981 23.7064 15.6805C23.7064 13.2631 25.3548 11.5322 27.8629 11.5322C30.0038 11.5322 31.7396 13.3898 31.7396 15.6807C31.7396 17.9714 30.0038 19.829 27.8629 19.829L27.863 19.8289ZM60.2505 23.1837H56.2128V1.13178H60.2505V23.1837ZM76.7119 20.7921C75.2519 22.5314 72.8603 23.4942 70.531 23.4942C66.0276 23.4942 62.6421 20.3885 62.6421 15.6674C62.6421 11.4744 65.4995 7.80951 69.9721 7.80951C74.1339 7.80951 77.0846 11.3191 77.0846 15.5121C77.0869 15.8972 77.0557 16.2817 76.9913 16.6613H66.5555C66.7729 18.7732 68.4812 20.233 70.6243 20.233C72.3324 20.233 73.6991 19.2702 74.4134 18.4937L76.7119 20.7921ZM72.9536 13.7107C72.8294 12.3752 71.6182 11.0707 69.9719 11.0707C68.2947 11.0707 66.9283 12.3441 66.7418 13.7107H72.9536ZM46.4302 7.80878C44.8278 7.78851 43.2684 8.32716 42.0201 9.3321V8.12004H38.1368V30.6371H42.1748V22.1279C43.3232 23.0351 44.7496 23.518 46.2129 23.4948C48.4493 23.4948 50.5917 22.5001 51.9274 20.9471C53.1081 19.5802 53.8212 17.7177 53.8212 15.6674C53.8212 11.2259 50.5292 7.80878 46.4302 7.80878ZM45.9395 19.8289C43.4313 19.8289 41.7828 18.0981 41.7828 15.6805C41.7828 13.2631 43.4314 11.5321 45.9395 11.5321C48.0804 11.5321 49.8161 13.3898 49.8161 15.6805C49.8161 17.9713 48.0804 19.829 45.9395 19.829V19.8289Z" fill="#8A87A9"/>
</svg>
