<svg width="109" height="34" viewBox="0 0 109 34" fill="none" xmlns="http://www.w3.org/2000/svg">
<path d="M1.15002 32.65C1.36456 31.8182 2.12428 13.7984 4.38585 17.606C5.18914 18.9584 6.58167 26.6599 7.56527 27.7639C9.88545 30.3681 17.4486 18.234 18.7633 21.4313C19.3484 22.8542 20.9585 24.9799 22.0855 25.9638C23.7554 27.4216 28.7653 19.6257 29.6177 17.606C30.7067 15.0255 27.066 6.32604 29.6177 3.462C31.8156 0.995094 33.9453 11.0639 35.4315 12.3984C36.6849 13.5239 37.8855 5.80394 39.171 4.8764C40.8522 3.66332 41.5966 7.66851 42.6487 9.50534C43.8638 11.6269 46.6497 5.65757 48.0695 4.8764C49.6083 4.02975 52.358 11.0386 53.7035 12.077C55.5823 13.5268 55.8954 9.14761 56.968 7.44803C57.4092 6.74887 58.3363 11.824 58.8873 12.0448C60.609 12.735 61.9777 3.00302 64.2486 1.98348C68.1285 0.241522 71.7001 0.894512 72.2906 7.19087C72.4069 8.43114 74.3664 2.66526 75.1259 1.98332C78.3233 -0.887727 80.9252 5.24591 82.8299 7.38374C83.5724 8.21709 84.1494 8.3481 85.1783 8.3481C85.771 8.3481 86.372 8.38401 86.6103 7.64091C86.6714 7.45044 86.6506 5.74737 87.1258 6.16222C87.3001 6.31435 88.2499 7.5325 88.3 7.44803C88.9408 6.36917 91.1569 4.79917 92.3955 4.8764C93.3719 4.93729 95.0338 6.68049 95.7463 7.48018C97.4107 9.34829 104.159 5.6529 106.314 6.16222C108.859 6.76361 104.973 13.3602 106.314 15.8701" stroke="#9111FF" stroke-width="2.1" stroke-linecap="round" stroke-linejoin="round"/>
</svg>
