<svg width="85" height="23" viewBox="0 0 85 23" fill="none" xmlns="http://www.w3.org/2000/svg">
<path d="M10.5984 7.02417C11.4942 7.02417 12.2682 7.18469 12.9186 7.49986C13.572 7.81814 14.1112 8.24688 14.5438 8.78609C14.9705 9.32807 15.2881 9.96152 15.4931 10.6875C15.6968 11.4155 15.799 12.1981 15.799 13.0359C15.799 14.3228 15.5632 15.5387 15.0871 16.6847C14.6111 17.8325 13.9652 18.8281 13.1436 19.6773C12.3227 20.5255 11.3534 21.1942 10.2356 21.6881C9.11957 22.1825 7.90616 22.4296 6.60336 22.4296C6.4349 22.4296 6.13871 22.4248 5.72032 22.4162C5.30193 22.4076 4.82106 22.3644 4.28254 22.2916C3.74056 22.216 3.16752 22.1041 2.56237 21.9543C1.95757 21.8072 1.38315 21.6012 0.842209 21.3395L5.67924 1.01517L10.0116 0.34375L8.27968 7.55613C8.65043 7.38905 9.02394 7.2596 9.39677 7.16535C9.76993 7.07249 10.1704 7.02417 10.5984 7.02417ZM6.96444 18.9928C7.61688 18.9928 8.23169 18.8323 8.80922 18.5171C9.38848 18.2016 9.88834 17.7756 10.3071 17.245C10.7258 16.712 11.0572 16.1117 11.2989 15.441C11.5405 14.7702 11.6627 14.0705 11.6627 13.3425C11.6627 12.448 11.5132 11.7504 11.2153 11.246C10.9174 10.7438 10.3661 10.4911 9.56557 10.4911C9.30321 10.4911 8.96526 10.5411 8.54618 10.6305C8.12571 10.7255 7.74944 10.9226 7.41218 11.2191L5.56808 18.8785C5.67924 18.8982 5.77762 18.9168 5.86151 18.9344C5.94367 18.9534 6.03446 18.9669 6.1249 18.9762C6.22052 18.9869 6.32995 18.9924 6.46217 18.9924C6.59438 18.9924 6.75973 18.9928 6.96444 18.9928ZM20.2918 22.0406H16.1538L19.6484 7.33589H23.8146L20.2918 22.0406ZM22.3054 5.54427C21.7279 5.54427 21.2042 5.37236 20.7395 5.02784C20.2711 4.6854 20.0391 4.15827 20.0391 3.44784C20.0391 3.05706 20.1185 2.69046 20.2759 2.34456C20.4358 1.99936 20.6446 1.70213 20.9063 1.44944C21.1676 1.19882 21.4704 0.998605 21.8142 0.84775C22.1601 0.699312 22.5281 0.625092 22.9202 0.625092C23.4974 0.625092 24.0183 0.797005 24.4847 1.14152C24.9493 1.48776 25.183 2.01489 25.183 2.72152C25.183 3.11368 25.104 3.48167 24.9452 3.82687C24.7874 4.17208 24.5786 4.4693 24.3169 4.72199C24.0577 4.97295 23.7522 5.17248 23.409 5.32196C23.0628 5.47281 22.6962 5.54427 22.3054 5.54427ZM27.441 3.67222L31.7751 3.0008L30.7108 7.3352H35.3525L34.5143 10.7451H29.9006L28.6717 15.8887C28.5585 16.3174 28.4943 16.7179 28.4763 17.09C28.4559 17.4639 28.5032 17.7849 28.6151 18.0552C28.7262 18.3262 28.9261 18.535 29.2161 18.6828C29.5047 18.833 29.9179 18.9086 30.4599 18.9086C30.9062 18.9086 31.3412 18.8661 31.7616 18.7819C32.1797 18.699 32.6033 18.5837 33.032 18.4329L33.3406 21.6212C32.7814 21.8262 32.1759 22.0026 31.5234 22.1511C30.87 22.3016 30.0964 22.3741 29.2023 22.3741C27.9167 22.3741 26.9201 22.1832 26.21 21.8031C25.501 21.4203 24.9997 20.8973 24.6998 20.2352C24.4039 19.5755 24.2717 18.815 24.3086 17.9582C24.347 17.0993 24.4764 16.1966 24.6998 15.2459L27.441 3.67222ZM35.1702 16.1687C35.1702 14.9021 35.3753 13.7077 35.785 12.5896C36.1941 11.4704 36.7834 10.4918 37.548 9.65187C38.3099 8.81613 39.2381 8.15402 40.3307 7.66797C41.4181 7.18469 42.6356 6.94097 43.9775 6.94097C44.8173 6.94097 45.5675 7.02037 46.2275 7.17951C46.8903 7.34003 47.4899 7.5475 48.0322 7.80778L46.6052 11.0527C46.2323 10.9015 45.8454 10.7683 45.4453 10.6474C45.0448 10.5242 44.556 10.4648 43.9778 10.4648C42.5966 10.4648 41.5047 10.9409 40.6921 11.8898C39.8826 12.8395 39.4749 14.1178 39.4749 15.7213C39.4749 16.6716 39.68 17.44 40.0915 18.0279C40.5009 18.6158 41.2572 18.9082 42.3553 18.9082C42.8973 18.9082 43.4203 18.8516 43.9212 18.7411C44.4259 18.6293 44.8715 18.4884 45.264 18.322L45.573 21.6484C45.0497 21.8514 44.4725 22.0347 43.8394 22.1953C43.2049 22.3503 42.4496 22.4307 41.5738 22.4307C40.4177 22.4307 39.439 22.2615 38.6385 21.9284C37.8376 21.5901 37.1758 21.141 36.6546 20.5721C36.1306 20.0018 35.7543 19.3359 35.5216 18.5716C35.289 17.808 35.1702 17.0058 35.1702 16.1687ZM53.5524 22.4307C52.5648 22.4307 51.707 22.2802 50.9793 21.9823C50.2536 21.6843 49.6526 21.2663 49.1773 20.7243C48.7013 20.1851 48.345 19.5461 48.1009 18.8098C47.8569 18.0738 47.7395 17.2588 47.7395 16.3658C47.7395 15.2456 47.9194 14.1257 48.2829 13.009C48.6446 11.8898 49.1814 10.8843 49.8919 9.99052C50.5968 9.0954 51.4664 8.36356 52.4902 7.79294C53.5131 7.22611 54.6895 6.94097 56.011 6.94097C56.9807 6.94097 57.834 7.09183 58.5717 7.38974C59.306 7.68696 59.9108 8.10846 60.3889 8.64767C60.8618 9.18964 61.2212 9.82585 61.4628 10.5632C61.7062 11.2978 61.8263 12.1149 61.8263 13.0086C61.8263 14.1254 61.6489 15.2452 61.2968 16.3654C60.9443 17.4801 60.4213 18.4881 59.7309 19.3839C59.0419 20.2776 58.1803 21.0091 57.1453 21.5773C56.1118 22.1455 54.9132 22.4307 53.5524 22.4307ZM55.6206 10.4652C55.0071 10.4652 54.4648 10.6433 54.0005 10.9951C53.5345 11.351 53.143 11.7984 52.8275 12.3379C52.5085 12.8799 52.2721 13.4709 52.1122 14.1133C51.9538 14.7571 51.8761 15.3657 51.8761 15.9439C51.8761 16.877 52.0266 17.6037 52.3225 18.1267C52.6224 18.6469 53.1613 18.9086 53.9446 18.9086C54.5601 18.9086 55.0997 18.7318 55.5667 18.3762C56.03 18.0231 56.4218 17.5754 56.7397 17.0348C57.0566 16.4956 57.2952 15.9028 57.455 15.2594C57.6114 14.6176 57.6911 14.0056 57.6911 13.4284C57.6911 12.4977 57.5413 11.7694 57.2427 11.2471C56.9444 10.7268 56.4032 10.4652 55.6206 10.4652ZM66.3354 22.0406H62.194L65.6885 7.33589H69.8569L66.3354 22.0406ZM68.3459 5.54427C67.7687 5.54427 67.2454 5.37236 66.7814 5.02784C66.3154 4.6854 66.0813 4.15827 66.0813 3.44784C66.0813 3.05706 66.1618 2.69046 66.3195 2.34456C66.4773 1.99936 66.6875 1.70213 66.9492 1.44944C67.2091 1.19882 67.5146 0.998605 67.8578 0.84775C68.2016 0.699312 68.5696 0.625092 68.9604 0.625092C69.5389 0.625092 70.0616 0.797005 70.5269 1.14152C70.9926 1.48776 71.2277 2.01489 71.2277 2.72152C71.2277 3.11368 71.1441 3.48167 70.9878 3.82687C70.8314 4.17208 70.6212 4.4693 70.3605 4.72199C70.0982 4.97295 69.7965 5.17248 69.4526 5.32196C69.106 5.47281 68.7388 5.54427 68.3459 5.54427ZM72.8391 8.00455C73.1532 7.91272 73.504 7.80226 73.8854 7.68213C74.2683 7.562 74.696 7.45015 75.1737 7.34935C75.6463 7.24544 76.1797 7.16121 76.7662 7.09597C77.3527 7.02934 78.021 6.99689 78.7635 6.99689C80.9459 6.99689 82.4503 7.63242 83.2809 8.89967C84.1108 10.1669 84.2544 11.9012 83.7159 14.0995L81.8124 22.0392H77.6471L79.4919 14.2666C79.6045 13.7812 79.6928 13.3121 79.7581 12.8536C79.824 12.3994 79.8202 11.9989 79.7432 11.6523C79.6697 11.3099 79.4964 11.0296 79.2275 10.8124C78.9544 10.5988 78.5419 10.4914 77.9823 10.4914C77.4428 10.4914 76.8939 10.5494 76.3336 10.6613L73.6213 22.0389H69.4544L72.8391 8.00455Z" fill="#8A87A9"/>
</svg>
