<svg width="107" height="24" viewBox="0 0 107 24" fill="none" xmlns="http://www.w3.org/2000/svg">
<path fill-rule="evenodd" clip-rule="evenodd" d="M9.06993 21.0544C9.88994 21.0544 10.657 20.9045 11.3801 20.6135C11.3801 20.64 12.8526 22.9237 12.879 22.9325C11.5757 23.6307 10.1162 23.9857 8.63788 23.9641C4.1146 23.9729 0.834564 20.9839 0.834564 16.2313C0.834564 11.4435 4.27332 8.47211 8.63788 8.47211C10.1809 8.47211 11.4065 8.80716 12.6321 9.45964L11.2214 11.8403C10.4807 11.5493 9.72241 11.4171 8.92885 11.4171C6.25721 11.4171 4.18514 13.1188 4.18514 16.2313C4.18514 19.1763 6.18667 21.0544 9.06993 21.0544ZM20.4707 8.47211C24.9146 8.47211 28.133 11.6199 28.133 16.2313C28.133 20.8163 24.9146 23.9641 20.4619 23.9641C16.0532 23.9641 12.8349 20.8163 12.8349 16.2313C12.8349 11.6199 16.0532 8.47211 20.4707 8.47211ZM20.4707 11.3113C17.993 11.3113 16.1855 13.2246 16.1855 16.2313C16.1855 19.2116 17.993 21.1249 20.4707 21.1249C23.0101 21.1249 24.7912 19.2116 24.7912 16.2313C24.7912 13.2246 23.0101 11.3113 20.4707 11.3113ZM30.2403 23.6291V8.80716H33.5556V23.6202H30.2403V23.6291ZM29.7994 4.24861C29.8338 3.72128 30.0675 3.22679 30.4532 2.86548C30.8388 2.50417 31.3475 2.30311 31.8759 2.30311C32.4044 2.30311 32.913 2.50417 33.2986 2.86548C33.6843 3.22679 33.918 3.72128 33.9524 4.24861C33.9525 4.8023 33.7356 5.33397 33.3482 5.72959C32.9609 6.1252 32.4339 6.35323 31.8803 6.36477C31.3267 6.35323 30.7998 6.1252 30.4124 5.72959C30.025 5.33397 29.8081 4.8023 29.8082 4.24861H29.7994ZM36.4477 9.7418C38.6193 8.92554 40.9171 8.49582 43.237 8.47211C47.0284 8.47211 49.4268 9.90933 49.4268 14.0887V23.6291H46.1555V14.3973C46.1555 12.2547 44.8241 11.4876 42.9813 11.4876C41.8086 11.4876 40.6359 11.6463 39.763 11.9197V23.6202H36.4565V9.7418H36.4477ZM52.2042 0.871582H55.5195V9.20394C56.2249 8.83362 57.5916 8.47211 58.8965 8.47211C63.1818 8.47211 66.3913 11.2055 66.3913 15.9668C66.3913 20.7546 63.217 23.9641 57.7327 23.9641C55.5901 23.9641 53.712 23.5233 52.2042 22.9942V0.871582ZM55.5195 20.8163C56.1544 21.0191 56.992 21.1249 57.8297 21.1249C60.8716 21.1249 63.0495 19.4497 63.0495 16.0374C63.0495 13.1541 61.0039 11.4524 58.4998 11.4524C57.1948 11.4524 56.1896 11.7874 55.5195 12.1577V20.8163ZM75.9757 13.692C75.9757 12.0872 74.7589 11.3465 73.1189 11.3465C71.4171 11.3465 70.0769 11.8491 68.8425 12.5545V9.67126C70.3192 8.86874 71.9761 8.45602 73.6567 8.47211C76.9015 8.47211 79.2116 9.81234 79.2116 13.5244V23.3293C77.8009 23.6996 75.7993 23.9289 74.124 23.9289C70.2797 23.9289 67.467 22.765 67.467 19.4144C67.467 16.3989 70.0416 14.9264 74.3268 14.9264H75.9669V13.692H75.9757ZM75.9757 17.1307H74.5649C72.2548 17.1307 70.747 17.8096 70.747 19.3174C70.747 20.8516 72.1578 21.4512 74.1593 21.4512C74.6619 21.4512 75.3673 21.3895 75.9669 21.2925V17.1395L75.9757 17.1307ZM81.6188 19.6172C82.9108 20.6409 84.4948 21.2276 86.142 21.2925C87.6145 21.2925 88.5844 20.7899 88.5844 19.6172C88.5844 18.4092 87.7115 17.9772 85.807 17.4746C82.7209 16.7692 81.4248 15.5348 81.4248 12.9513C81.4248 9.9446 83.6996 8.47211 86.7152 8.47211C88.3904 8.47211 89.7219 8.83362 90.9651 9.60954V12.6515C89.7835 11.7084 88.3237 11.1816 86.8121 11.1526C85.3749 11.1526 84.6078 11.858 84.6078 12.8279C84.6078 13.7978 85.2338 14.2915 86.9444 14.7677C90.3303 15.4995 91.7939 16.7692 91.7939 19.4408C91.7939 22.5622 89.4221 23.9641 86.2126 23.9641C84.6027 23.9963 83.0155 23.5811 81.6276 22.765V19.6172H81.6188ZM96.3348 16.972V17.0337C96.5376 19.6789 98.8037 21.1249 101.123 21.1249C103.159 21.1249 104.632 20.6488 106.104 19.6789V22.5886C104.764 23.5321 102.789 23.9641 100.885 23.9641C96.2643 23.9641 93.1253 21.0191 93.1253 16.3371C93.1253 11.6199 96.2026 8.47211 100.285 8.47211C104.605 8.47211 106.642 11.2496 106.642 15.2967V16.972H96.326H96.3348ZM103.53 14.8294C103.459 12.5193 102.322 11.2496 100.179 11.2496C98.2746 11.2496 96.8727 12.5898 96.4318 14.8294H103.53Z" fill="#8A87A9"/>
</svg>
