<svg width="71" height="18" viewBox="0 0 71 18" fill="none" xmlns="http://www.w3.org/2000/svg">
<path d="M6.2141 2.1114V5.57107H9.57651V8.16697H6.19095V13.4306C6.19095 14.5931 6.8324 15.1604 7.77257 15.1604C8.24266 15.1604 8.78685 15.0122 9.23147 14.7899L10.0721 17.3603C9.20831 17.7054 8.49044 17.8536 7.57574 17.879C4.93121 17.9786 3.20138 16.4711 3.20138 13.4306V8.16697H0.927353V5.57107H3.20138V2.43329L6.2141 2.1114ZM64.1831 5.40897L64.4054 6.81692C65.3456 5.30939 66.6053 5.08709 67.8419 5.08709C69.1017 5.08709 70.3128 5.58033 70.9797 6.24725L69.6204 8.86632C69.0021 8.3476 68.4347 8.07435 67.4459 8.07435C65.8643 8.07435 64.4054 8.91495 64.4054 11.1635V17.5896H61.3904V5.40434L64.1831 5.40897ZM56.7937 10.0797C56.5969 8.49812 55.3603 7.70615 53.6305 7.70615C52.0002 7.70615 50.664 8.49812 50.2194 10.0797H56.7937ZM50.1708 12.5761C50.3676 14.0836 51.6783 15.172 53.8041 15.172C54.9157 15.172 56.3746 14.7505 57.067 14.035L58.9936 15.9385C57.7084 17.2723 55.6081 17.9161 53.7532 17.9161C49.5525 17.9161 47.0539 15.3202 47.0539 11.4159C47.0539 7.70846 49.5757 5.03846 53.5309 5.03846C57.6088 5.03846 60.1561 7.56026 59.686 12.5761H50.1708ZM36.874 0.29126V7.06238C37.9624 5.65443 39.2962 5.23297 40.681 5.23297C44.1407 5.23297 45.6737 7.5811 45.6737 11.1658V17.5919H42.6586V11.1913C42.6586 8.96589 41.4962 8.02803 39.8891 8.02803C38.1083 8.02803 36.874 9.53556 36.874 11.365V17.5942H33.859V0.293576L36.874 0.29126ZM28.8663 1.97246V5.43213H32.2287V8.02803H28.8432V13.2916C28.8432 14.4541 29.4869 15.0215 30.4248 15.0215C30.8949 15.0215 31.4391 14.8733 31.8837 14.6509L32.7243 17.2214C31.8605 17.5664 31.1427 17.7146 30.228 17.7401C27.5834 17.8397 25.8536 16.3298 25.8536 13.2916V8.02803H23.5796V5.43213H25.8536V2.29434L28.8663 1.97246ZM20.5367 10.0797C20.3399 8.49812 19.1033 7.70615 17.3735 7.70615C15.7432 7.70615 14.4071 8.49812 13.9625 10.0797H20.5367ZM13.9138 12.5761C14.1107 14.0836 15.4213 15.172 17.5472 15.172C18.6587 15.172 20.1176 14.7505 20.81 14.035L22.7367 15.9385C21.4514 17.2723 19.3511 17.9161 17.4962 17.9161C13.2932 17.9161 10.7969 15.3202 10.7969 11.4159C10.7969 7.70846 13.3187 5.03846 17.2716 5.03846C21.3495 5.03846 23.8945 7.56026 23.4267 12.5761H13.9138Z" fill="#8A87A9"/>
</svg>
